<svg xmlns="http://www.w3.org/2000/svg" width="25" height="25" viewBox="0 0 25 25">
  <g id="Group_355" data-name="Group 355" transform="translate(-93.531 -226.63)">
    <g id="Group_352" data-name="Group 352" transform="translate(98.776 231.875)">
      <path id="Path_326" data-name="Path 326" d="M172.75,258.795l1.735.518,2.645-4.9-4.9,2.645.518,1.735Z" transform="translate(-162.62 -254.415)" fill="#fff"/>
      <path id="Path_327" data-name="Path 327" d="M123.96,259.313l1.735-.518h0l.518-1.735-4.9-2.645Z" transform="translate(-121.315 -254.415)" fill="#fff"/>
      <path id="Path_328" data-name="Path 328" d="M172.75,305.849h0l-.518,1.735,4.9,2.645-2.645-4.9Z" transform="translate(-162.62 -295.719)" fill="#fff"/>
      <path id="Path_329" data-name="Path 329" d="M125.7,305.849l-1.735-.518-2.645,4.9,4.9-2.645-.518-1.735Z" transform="translate(-121.316 -295.719)" fill="#fff"/>
    </g>
    <path id="Path_330" data-name="Path 330" d="M162.1,234.52l-2.357-7.89v12.5l2.875-2.875Z" transform="translate(-53.715 0)" fill="#fff"/>
    <path id="Path_331" data-name="Path 331" d="M103.156,277.615h0l-1.735.518-7.89,2.357h12.5Z" transform="translate(0 -41.36)" fill="#fff"/>
    <g id="Group_353" data-name="Group 353" transform="translate(106.031 236.255)">
      <path id="Path_332" data-name="Path 332" d="M159.746,292.846l2.875,2.875,1.735-.518,7.89-2.357Z" transform="translate(-159.746 -289.97)" fill="#fff"/>
      <path id="Path_333" data-name="Path 333" d="M164.356,278.133l-1.735-.518h0l-2.875,2.875h12.5Zm-1.707-.41,1.68.5,7.26,2.169H159.978Z" transform="translate(-159.746 -277.615)" fill="#fff"/>
    </g>
    <path id="Path_334" data-name="Path 334" d="M144.517,295.721h0l.518,1.735,2.357,7.89v-12.5h0Z" transform="translate(-41.361 -53.716)" fill="#fff"/>
    <g id="Group_354" data-name="Group 354" transform="translate(93.531 226.63)">
      <path id="Path_335" data-name="Path 335" d="M112.134,242.234l1.821-6.095q-.26.013-.517.038a10.661,10.661,0,0,0-9.478,10.571c0,.032,0,.064,0,.1h10.528l-2.875-2.875Z" transform="translate(-101.991 -234.344)" fill="none"/>
      <path id="Path_336" data-name="Path 336" d="M109.993,295.2l-5.9-1.761a10.446,10.446,0,0,0,10.409,9.691l.1,0V292.846h0l-2.875,2.875Z" transform="translate(-102.103 -280.346)" fill="none"/>
      <path id="Path_337" data-name="Path 337" d="M97.591,241.941h.249a11.5,11.5,0,0,1,11.18-11.383l.1-.344A11.755,11.755,0,0,0,97.591,241.941Z" transform="translate(-96.825 -229.537)" fill="none"/>
      <path id="Path_338" data-name="Path 338" d="M108.46,303.886A10.446,10.446,0,0,1,98.051,294.2l-1.407-.42a11.835,11.835,0,0,0,11.816,11.552l.1,0v-1.441Z" transform="translate(-96.056 -281.1)" fill="#fff"/>
      <path id="Path_339" data-name="Path 339" d="M170.38,235.656a11.9,11.9,0,0,0-10.624-6.489h-.01v.192h.01a11.707,11.707,0,0,1,10.453,6.386l.034.064.17-.09Z" transform="translate(-147.246 -228.688)" fill="#fff"/>
      <path id="Path_340" data-name="Path 340" d="M159.211,230.128h0v-.017Z" transform="translate(-146.812 -229.454)"/>
      <path id="Path_341" data-name="Path 341" d="M171.172,318.09l-1.281-.658a10.347,10.347,0,0,1-8.476,5.617l-.437,1.463A11.783,11.783,0,0,0,171.172,318.09Z" transform="translate(-148.245 -300.291)" fill="#fff"/>
      <path id="Path_342" data-name="Path 342" d="M169.287,238.591l.683-.351a11.451,11.451,0,0,0-10.224-6.245v.768A10.686,10.686,0,0,1,169.287,238.591Z" transform="translate(-147.246 -230.982)" fill="#fff"/>
      <path id="Path_343" data-name="Path 343" d="M97.967,241.109a10.661,10.661,0,0,1,9.478-10.571q.257-.025.517-.038l.231-.775a11.5,11.5,0,0,0-11.18,11.383h-.249A11.755,11.755,0,0,1,108.3,229.382l.058-.194A11.948,11.948,0,0,0,96.572,241.12h.007c0,.029,0,.057,0,.085h1.388C97.969,241.173,97.967,241.141,97.967,241.109Z" transform="translate(-95.998 -228.705)" fill="#fff"/>
      <path id="Path_344" data-name="Path 344" d="M147.392,226.63l-.144.483-.058.193-.1.344-.231.775-1.821,6.095-.518,1.735,2.875,2.875v-12.5Zm-.1,1.015V238.9l-2.67-2.671.5-1.68,1.83-6.125.231-.774.1-.344,0-.017v.358Z" transform="translate(-134.892 -226.63)" fill="#fff"/>
      <path id="Path_345" data-name="Path 345" d="M94.114,292.846h-.583l.588.175,1.407.42,5.9,1.761,1.735.518,2.875-2.875H94.114Zm9.015,2.767-1.68-.5-5.931-1.772-1.33-.4H105.8Z" transform="translate(-93.531 -280.346)" fill="#fff"/>
      <path id="Path_346" data-name="Path 346" d="M159.746,296.183v9.163l.232-.778.437-1.463,1.687-5.648.518-1.735h0l-2.875-2.875h0Zm.1-3.105,2.671,2.671-.5,1.68-1.7,5.683-.436,1.458-.036.119V293.078Z" transform="translate(-147.246 -280.346)" fill="#fff"/>
    </g>
  </g>
</svg>
