<svg xmlns="http://www.w3.org/2000/svg" xmlns:xlink="http://www.w3.org/1999/xlink" viewBox="0 0 432.737 512"><defs><clipPath id="a" transform="translate(-39.631)"><polygon points="401.688 37.133 376.907 37.133 396.703 52.577 388.467 77.376 409.013 61.791 429.694 77.299 421.458 52.357 441.128 38.133 416.559 38.133 409.165 15.165 401.688 37.133" style="fill:none"/></clipPath><linearGradient id="b" x1="-45.515" y1="688.753" x2="-42.523" y2="688.753" gradientTransform="matrix(21.408, 0, 0, -21.408, 1311.723, 14790.748)" gradientUnits="userSpaceOnUse"><stop offset="0" stop-color="#f7f08c"/><stop offset="0.512" stop-color="#f4db2c"/><stop offset="1" stop-color="#c8a210"/></linearGradient></defs><path d="M227.846,509.183c.268-.054.95-.194,1.278.218a2.617,2.617,0,0,0,1.549.918c.413-.051,1.821-.229,2.039.092a3.932,3.932,0,0,1,.691,1.095c.05.266.186.494.42.494a4.441,4.441,0,0,0,1.314-.321c.372-.173.64-1.411,1.549-2.093s3.1-1.862,3.554-2.272,1.314-.228,2.189-.648a12.85,12.85,0,0,0,2.054-1.046,1.5,1.5,0,0,1,1.686.364c.454.5.73.918,1.582.648.877-.276,1.373-.917,1.827-.917a1.666,1.666,0,0,0,1.592-.5,5.529,5.529,0,0,0,.781-2.094c.178-.5.674-.774,1.551-.866a1.463,1.463,0,0,0,1.179-1.507c.06-.59.884-.682,1.053-1.412a3.156,3.156,0,0,1,1.329-2.087,1.605,1.605,0,0,0,.911-1.548c-.1-.372,2.541-2.323,2.87-2.408.311-.109.218.621.952.539s.631-.648,1.186-1.33c.539-.675,1.221-.177,1.322-.774.077-.59-.049-.59-.184-1.17-.135-.6-.321-.825-.135-.6s.5.27.674.908.37.6,1.01.453,1.363-.368,1.128-.866c-.212-.5-.632-.952,0-1.228a13.611,13.611,0,0,0,1.75-.951,3.275,3.275,0,0,1,1.768-.689,2.263,2.263,0,0,1,1.686.327c.4.311.588.808,1.322.808s1-.5,1.5-.675a3.607,3.607,0,0,0,1.51-1.009c.6-.6,1.227-1.992,1.466-2.179.218-.2.31.136.536-.092s.087-.682.228-.867,1.271-1.18,1.684-1.684a12.291,12.291,0,0,1,1.19-1.422,7.426,7.426,0,0,1,1.919-1.63c.589-.229,1.5-.28,1.952-.727.361-.378.742-1.091,1.063-1.5s.536-.682.486-.91c-.032-.225.05-.225.186-.27a3.54,3.54,0,0,0,1.01-.729c.312-.372.589-.144.625.051.049.174.148.494.638.133.513-.362.136-.413,0-.918a3.214,3.214,0,0,1-.082-1.684,1.048,1.048,0,0,0,.082-.815c-.033-.184-.135-.369.051-.5s.276-.464.085-.413c-.169.034-.321-.143-.457-.269-.133-.143-.033-.586-.908-.682s-1.365-.235-1.716-.774a1.671,1.671,0,0,1-.381-1.6c.195-.682.917-1.644-.361-1.869s-.724-.044-.959-.447c-.219-.429-.993-.429-1.282-.327-.267.092-.169.361.186.276.371-.092.732.229.278.229a14.013,14.013,0,0,0-3.226.631,7.806,7.806,0,0,1-1.7.6,4.478,4.478,0,0,0-2.542,1.163c-.591.791-.319.74-.69,1.067a1.908,1.908,0,0,0-.774,1.347c-.036.682.235,1.02.133,1.423a4.457,4.457,0,0,0-.169,1.462c.085.219-.739.5-1.288.219-.529-.266-.589-.4-.681-.672s-.321-.092-.507,0-.672-.235-1.261-.143-.926.051-.876-.311.824-.286.464-.873-.094-.869-.362-1.282c-.288-.395-.423-.082-.556-.395a1.233,1.233,0,0,1,.049-1.194c.27-.259.507.041.683.419.186.355.455.034.186-.46s-.33-.5-.279-1.054-.136-.637-.639-1.033a3.114,3.114,0,0,1-.86-1.061c-.268-.463-.371-.682-.917-.726s-.649.178-.682-.409c-.049-.59-.321-1.508-.049-1.869a.917.917,0,0,0,.184-.962c-.135-.225.421-.133.133-.586-.268-.457-.589-.457-.681-.768-.083-.327-.143.137-.176.27-.051.143-.457-.092-.692-.327-.219-.219-.176-1.044.271-1.17a.989.989,0,0,1,1.278.539c.288.6.926,1.05.817.774a4.041,4.041,0,0,0-.665-1.313c-.387-.42-.916-.733-.649-1.33s.818-.917,1.053-.808c.229.085.589.3.676.126s-.169-.631.049-1.05c.236-.4.691-.311,1.145-.952s.775-.641.775-.876a15.831,15.831,0,0,1,.622-1.583c.236-.6.741-1.183,1.331-1.183s.86.092,1.128-.321a2.519,2.519,0,0,0,.606-1.186c0-.355-.084-.539-.464-.631-.36-.092-.589-.051-.41-.328.2-.269.335-.269.469-.59a2.933,2.933,0,0,0,.18-1.643,10.173,10.173,0,0,1,.039-3.322c.222-.59-.039-1.541.278-1.869a5.154,5.154,0,0,1,1.138-.808c.4-.235.227-.327.321-.784a6.156,6.156,0,0,1,.319-1.32c.135-.276.455-.31.588-.59s.219-1.961.507-2.639a2.7,2.7,0,0,1,1.684-1.5c.589-.092,1.415-1.176,1.778-1.773s.814-.744,1-.457c.184.269.321.675.826.361.488-.317,1.819-1.412,1.447-1.691s-.639-.311-.4-.713c.218-.423.641-.887.641-1.06s-.1-1.4-.145-2.046.043-1.279-.175-1.187c-.236.1-.1.5-.454.177a6.471,6.471,0,0,1-1.695-2c-.126-.6.55.136.884.044.3-.085.255-.767.255-.767s.453.767.556.631a2.708,2.708,0,0,0,.032-1.5c-.169-.508-.4-1.456-.169-1.77a1.838,1.838,0,0,1,1.5-.774c.682.034.775,1,1.413,1.044s1.6.092,1.912-.27a1.348,1.348,0,0,0,.277-1.091,9.264,9.264,0,0,1-.1-2.012c.1-.4.421-.992.693-.958a7.2,7.2,0,0,0,1.959-.137,3.331,3.331,0,0,1,1.313-.228,5.442,5.442,0,0,0,1.88-.218c.775-.226,1.952-1.33.908-1.607-1.053-.262-1.682.051-1.919-.487-.227-.556-1.087-1.33-1.549-1.146s-.169-.679-.633-1.136.464-1.279.87-1.227.672,1.135,1.126.992c.464-.126-.352-.716,0-.952s.96.826,2.141,1.095,2.423.907,3.047.126c.655-.767.927-1.043.243-1.759-.681-.74.228-.884.489-1.061.278-.184.976.235,1.507.825.556.6,1.138,1.685,1.549,1.5s1.329-.723,1.329-1.445a3.2,3.2,0,0,0-.554-2.456c-.674-.692-.674-1.507-.034-.784a7.976,7.976,0,0,1,1.542,3.1c0,.59.681.27,1.727,1.405a11.5,11.5,0,0,1,1.6,2.19,17.2,17.2,0,0,1,1.778,1.926,10.88,10.88,0,0,0,2.515,2.674c.49.269,1.686,2.019,2.771,2.561s1.29.409,1.645.631,1.866.454,2.271.948c.423.508.237.825.691,1.187s.539,1.18,1.127,1.012c.6-.187.691-.456.835-.422.126.058.546.784.858.371a6.765,6.765,0,0,0,.548-2.281c.051-.4-.354-.945-.488-1.5-.154-.549.624-.911.4-1.313-.235-.423-.1-.648-.334-.6s-.532-.454-.532-.6.143-.225.4-.269c.278-.048-.261-.048-.647-.461a3.106,3.106,0,0,1-.582-1.862c.093-.412-.228-.672-.682-1.187-.456-.494-1.23-2.414-2.2-3.137-.952-.733-1.489-1.422-1.81-1.548a8.334,8.334,0,0,0-1.784-.287c-.591-.041-.953-.62-1.635-1.169s-2.643-2.4-3.1-2.879a10.882,10.882,0,0,1-1.6-2.138,18.185,18.185,0,0,1-1.042-1.95,1.52,1.52,0,0,0-.683-.952,3.772,3.772,0,0,1-1.558-2.145c-.175-.917-.3-2.281.152-2.7.437-.4.631-.177.631-.951s.042-1.538-.226-1.634-.86-.184-.454-.317a10.4,10.4,0,0,0,1.588-.692c.59-.3,1.7-.041.5-1.187a5.594,5.594,0,0,1-1.728-2.489,2.907,2.907,0,0,0-2.2-1.422c-.943-.126-1.716-1.91-2.627-2.534-.917-.648-.6-1.245-1.009-1.388a10.174,10.174,0,0,1-2.51-1.354c-.673-.59-1.313-.143-1.87-.641-.539-.5-.5-1.446-1.044-1.422-.537.051-.815.917-1.179,0a14.31,14.31,0,0,0-.907-2.356c-.54-.908-.652-1.412-.1-1.412s1.053-.682.6-1.044-.95.034-1.288.034c-.3,0-1.767.191-2.443-.774s-.923-1.766-.42-1.817.828.235,1.012,0a.839.839,0,0,0,.133-1c-.235-.539-.235-.723.278-.856.5-.136-.595-.457-.186-.818.4-.379,2.863,1.674,3.092,1.633a11.346,11.346,0,0,0,1.651-2.138c.127-.27-.1-.236-.37-.051s-.682-.311-.682-.775a3.23,3.23,0,0,1,1.134-1.9,3.466,3.466,0,0,0,1.5-1.774c.321-.924.37-2.649,1.423-3,1.053-.372,1.954-.153,2.553-.774.588-.648,2.55-1.971,3.736-1.733,1.181.219,1.493.952,2.955.757,1.459-.177,3.244-.808,4.1-.177.868.648,2.779,2.691,3.789,2.786s3.007-.143,3.452.133.691.631,1.012.546.907.044.858.239c-.051.174,0,.89.184.951.186.031.642-.1.415-.32s-.365-.826.268-.55,1.088.775.641.87c-.464.089-.867.587-.4.713.454.143.665-.218,1.085-.218s1.414.041,1.819.59a1.807,1.807,0,0,0,1.416.774,22.887,22.887,0,0,0,2.6-.682,3.561,3.561,0,0,1,2.6.051c.674.368,1.363.73,1.406.992s.229.5.5.235a.855.855,0,0,0-.274-1.319c-.642-.457-1.314.133-1.684-.6a7.543,7.543,0,0,1-.137-3.636c.229-.317.539-.638.321-.907-.235-.276-.456-.648-.135-.539.321.068.539.4,1.264.355.741-.051,1.195-.59.874-.87a2.337,2.337,0,0,1-1.043-1.957c0-1.18-.1-1.323.405-1.449.5-.144,1.37-.505.959-1.194a2.655,2.655,0,0,1-.135-1.736c0-.453.909-.579,1.363-.579s.314.218.867.218.954.051,1.542,0,.507.682.961,1.1c.452.4.36.856,1.1.856a9.492,9.492,0,0,0,3.09-.638c.725-.365,1.044-.962,1.457-.911s.278.5,1.271.052a21.076,21.076,0,0,0,2.829-1.238c.4-.362.135-.631.4-.822s.557.283.463-.273c-.092-.536-.185-.266-.589-.5-.411-.218-.95-.174-1-.815s0-.133.408.041c.419.195.873-.041,1.184.113a1.951,1.951,0,0,0,1.324,0c.722-.2,2.088-1.105,2.145-2.156.042-1.05.129-1.456-.236-1.868s.236-1-.31-1.354a10.821,10.821,0,0,1-1.6-1.238,4.137,4.137,0,0,1-1-2.094c-.227-1.054-.093-1.593.278-1.961.355-.361.672-1.272,1.583-1.084s1.187.535,1.287,1.084c.085.546.363.774,1,.546s.781-.5.141-1.446c-.641-.969-.37-1.337.321-1.784s1.633-.634,1.819-.269.927.494,1.548.672a8.321,8.321,0,0,0,2.19.6,6.2,6.2,0,0,1,1.55.188c.267.048.725-.28,1.5-.539s1.1-1.879.557-2.653-.186-.46.218-.235,1.008-.174,1.5-.443a23.686,23.686,0,0,1,5.161-.229c.818.082.818-.092.413-.774a3.6,3.6,0,0,0-1.1-1.364c-.314-.15-.447-.236-.413-.372.058-.133-.59-1.05-.676-1.5a5.963,5.963,0,0,0-.866-2.786c-.732-.859-1.55-2.534-1.92-2.953-.362-.4-1.042-1-1.087-1.589s-.092-1.187.22-1.044a2.135,2.135,0,0,0,1.28.041c.413-.133.775-1,.824-.631a2.735,2.735,0,0,0,.961,1.818,1.141,1.141,0,0,0,1.4-.137c.278-.143.873.035.916.27a.348.348,0,0,0,.464.269c.229-.034.353-.5.539-.682a10.016,10.016,0,0,1,1.785-.586,4.9,4.9,0,0,1,1.684-.28c.353.044.186.648-.142.6-.312-.051.05.679.463.266s.411-.638.629-.74c.229-.082.867.648,1.29.74.387.1,1.633.062,2.138.6s1.817,1.457,1.954,2.1c.141.621.218.764.641.948.4.178,1.5.539,1.682.86.169.327.169.546.5.726s1.1-.044,1.558.317,1.549.867.96.184c-.605-.681-.926-1.135-.877-1.5.053-.378.321-1.411,1.181-1a7.327,7.327,0,0,1,1.609.856c.218.229.867,0,.36-.815s-.462-1.18-.142-1.507a28.042,28.042,0,0,0,2.374-1.634c.725-.729,2.5-.647,3.276-1.009.791-.351,2.779-1.221,3.2-1.456a2.861,2.861,0,0,1,1.5,0c.362.044,1.817-.621,2.324-.082s.775.907,1.043.539a8.47,8.47,0,0,0,.136-3.417,6.5,6.5,0,0,0-.59-1.5c-.184-.28.59-.28.868-.406.268-.143.673-.556,1-.512s.454.185.774.15a4.561,4.561,0,0,1,1.828-.194c.394.194-.732-.723-1.609-1.453a6.06,6.06,0,0,1-2.037-3.1c-.27-1.227-1.179-3.5-1.971-3.826-.775-.314-1.177.225-1.5-.539a20.14,20.14,0,0,0-1.728-3.737c-.69-.907-.732-1.228-.226-1.279s1.261.866,2.1.832a12.585,12.585,0,0,1,2,.034c.219.051.219.5.683.413s.539-.5.909-.447c.372.034.094.624.591.675s1.462.321,2.144.372.86.133.86-.246a1.918,1.918,0,0,1,.507-1.633,3.333,3.333,0,0,0,.959-2.138,4.813,4.813,0,0,1-.456-1.733c.043-.774-.834-.6-1.372-1.268-.547-.693-.085-1.609-.825-2.046-.715-.463-.589-2.2.1-2.879a6.286,6.286,0,0,1,3.047-1.085c.69-.1,2,.774,2.694.866s3.184-.051,3.536.312a2.349,2.349,0,0,0,1.837.723,2.256,2.256,0,0,0,2.054.514c.589-.15,3.687-.15,4.733-.413a20.918,20.918,0,0,1,2.87-.235,22.277,22.277,0,0,1,2.367-.27c.419,0,1.052-.774,1.011-.9a8.585,8.585,0,0,1,2.188-.152c.414,0,.547.152,1.095-.083s1.592-.589,2-.74c.405-.127,1.684.513,2.181.278a4.705,4.705,0,0,0,1.591-1.683c.152-.355,1.2-.439,1.466-1,.27-.537,0-.96.133-1.187.137-.209.775-.175.961-.445s.135-.69.505-.868c.355-.192.774.052.954-.092s.411-.639.638-.682-.277-.411-.227-.772.455-.59.269-.919c-.177-.311-.773-.766-.233-1.228s1.37,0,1.462-1,.556-1.777.361-2.095c-.175-.319.28-.219.321.143s.413.269.649.453c.218.178.085.59.457.364.351-.227.31-.775.589-.775s.588.133.588-.127a3.852,3.852,0,0,1,.4-1.641c.319-.5-.043-1.826-.043-1.826a1.062,1.062,0,0,0,1.331-.184,2.709,2.709,0,0,1,1.911-.917c.312.092.312-.22,1.129-1.17a2.55,2.55,0,0,0,.638-2.609,3.17,3.17,0,0,1,.287-2.046,4.6,4.6,0,0,0,.353-1.816c-.049-.682.135-.917.589-1.045.457-.15.926-.612.372-1.008-.548-.414-.094-.733.184-.96s.549.5,1.145.5.489-.538.623-.949.793-.094,1.1-.456c.321-.361.186-.774.464-.823s.5-.312-.143-.953a1.423,1.423,0,0,1,.1-2.178,1.872,1.872,0,0,1,1.551-.329c.219.092.993-.083.857-1s-.268-1.229-.589-1.229-.454.581-.916.4-.9-.218-1.089-.4.272.043.54-.31c.288-.362.691-1.55,1.919-1.735s1.45.227,1.727-.462.918-1.5,1.087-1.868c.2-.362-.355-.817-.035-1.228a11.06,11.06,0,0,1,3.554-1.818c.826-.136.826-.547.775-1.094s.918-1.095.64-1.506a3.347,3.347,0,0,1-.454-1.229c-.036-.22.682-1.869,1.733-2.036,1.038-.184,1.137.083,1.314-1.1s.186-2.136,0-1.96-.385,1.028-.909.648c-.178-.151-.944-.058-.91-.824a13.976,13.976,0,0,1,.272-1.465,3.1,3.1,0,0,1,.5-1.817c.456-.5.691-.826-.084-1.692s-.827-1.084-.515-1.5a3.733,3.733,0,0,0,1.1-1.91,6.253,6.253,0,0,0-.548-3.2c-.411-.774-.041-1.54-.46-1.591s-.458.455-.768.1-.278-1.052-.817-1.1c-.556-.034-.825-.143-.69-.445.134-.327.092-.733.64-.825s1.329.184,1.043-.5a9.169,9.169,0,0,1-1.145-4.039c0-2.021.556-2.331.776-2.56.236-.235.461-.6-.053-.68a2.593,2.593,0,0,1-1.447-1.784c-.134-.774.094-1.456-.353-1.456a3.916,3.916,0,0,1-2.332-1c-.312-.539,0-1.135-.5-1.321s-.692,0-.774-.815a2.5,2.5,0,0,1,.4-2,1.945,1.945,0,0,0-.092-2.094c-.361-.6-.546-.37-.228-.909s.742-1.322-.951-1.508-2.332-.351-2.475.27c-.125.65-.715,1.373-1.22,1.33s-.961-.917-1.1-1.514a.727.727,0,0,0-.909-.623c-.372.035-.591-.143-1.229-.791-.639-.631-.96-.759-1.044-1.221-.1-.455.405-.269.133-.917-.278-.631-.317-.774-.832-.774-.488,0-2.316-1.405-2.729-1.362-.4.051-.631-.094-.909-.541s-.362-.916-.732-1.1a3.45,3.45,0,0,1-1.5-1,1.354,1.354,0,0,1,.137-2.094c.775-.547,1.008-.59.469-1-.556-.4-1.152-.269-1.7-.446s-.722-.319-1.314.211c-.588.554-1.243.8-1.38,1.1-.126.321-1.085-.126-1.549.775-.454.917-1.449,1.96-1.263,3.367s-.133,2.094.775,2.641,2.139.783,2.272,1.651.18,4-.453,4.634c-.639.648-1.145.877-1.413,1.508s-1.367,1.909-1.416,2.508a4.87,4.87,0,0,1-.961,2.953,12.114,12.114,0,0,0-1.413,2.23c-.489.73-1.129,1.051-1.231,2.2a3.652,3.652,0,0,1-1.086,2.457c-.5.453-.361,1.875-1.085,2.457a3.047,3.047,0,0,0-1.416,2.087,3.313,3.313,0,0,1-1.633,3,8.326,8.326,0,0,0-2.66,2.3,5.581,5.581,0,0,1-2.139,2.044c-.773.21-.942,1.178-.724,1.953.236.782-.464,1.96-1.138,1.868s-.781-.784-1-.556a19.766,19.766,0,0,1-1.92,1.692c-.861.638-1.686,1.311-1.778,2.188a4.245,4.245,0,0,1-1.5,3.314c-1.286.877-2.416-.126-3.646.877a8.484,8.484,0,0,1-3.975,2.136c-1.321.135-2.089.31-2.314-.085-.235-.411-.278-1.185-.919-.824s-.589,1.093-.908,1.313c-.321.236-.092.7.27.5a1.3,1.3,0,0,1,1.65.546c.319.733,1.963,5.294,1.313,6.1-.641.824-1.051,1.421-1.051,1.421a43.426,43.426,0,0,1-3.859,2.441c-.512.15-.461.471-.6.967s-.32,1.011-2.747,1.961a11.6,11.6,0,0,1-3.233.774,5.267,5.267,0,0,1-1.682.725c-.768.143-1.92-.312-2.409.092a6.635,6.635,0,0,0-1.652,2.549c-.218.859-1.406,1.591-2.088,2.23a1.286,1.286,0,0,0-.5,1.54c.144.564.5.327-.4,1.195s-2.007,2.045-1.652,2.457a12.339,12.339,0,0,1,1.785,2.87c0,.421.321,1.1.588.909s.279-.809.456-1.086,1,.446,1.549.506c.556.032.589-.229.91.269a1.619,1.619,0,0,0,1.322.723c.6.092,1.776.681,1.413,1.144s-.444.817.042,1.22c.507.412,1.417.96.828,1.018-.592.034-1.189-.15-1.592.127s-1.239.411-1.29-.093c-.034-.5-.083-1.313-.4-.907a1.958,1.958,0,0,1-.961.782c-.353.091-.942-.145-.486-.515s.722-.267.682-.815c-.059-.547-.278-.782-.235-1.28s-.447-.723-.642-.27c-.175.456-.9.556-.9,1.136s.454.733-.278.733a2.1,2.1,0,0,1-1.23-.455c-.225-.084-.58-.184-.679.136s-.095.142-.507.64-1.23.218-1.784.31a2.273,2.273,0,0,0-1.449,1.516c-.218.714-.556,1.446-.96,1.54-.42.092-.456.184-.589.68a1.313,1.313,0,0,1-1.145.774c-.363.051-.4.723-.682,1-.734.776-1.138,1.052-1.635,1.1s-2.366-.327-3.022.128a12.71,12.71,0,0,1-2.948,1.564c-.588.085-2.373,2.136-3.779,2.221-1.423.092-3.747-.825-4.38-.6s-1.32.453-1.641.277-.818.176-.548.319.5.362,0,.817a20.821,20.821,0,0,1-2.467,1.867,1.493,1.493,0,0,1-1.582-.278c-.549-.361-1.962-.588-2.475-1a1.078,1.078,0,0,0-1.348-.092c-.463.244-1.145.958-2.157.27-.993-.674-.858-1.491-.58-1.844.27-.387.077-1.11-.462-1.834a7.3,7.3,0,0,0-2.106-1.777,11.854,11.854,0,0,0-2.191-1.1,7.354,7.354,0,0,1-2.213-.4c-.5-.312-.967-1.18-.783-1.456s.591.186.908.37.6-.094,1.2-.235.807.141.539-.548c-.287-.682-.684-1-.353-1.362.3-.363.807-.59.807-1.189s-.219-1.133.186-1.422c.4-.259.175-.436.268-1.353s.909-.582.556-1.136c-.37-.547-.7-1.187-.186-1.548.5-.372.827-.278.911-.783.082-.488.539-1.4.993-1.456a6.144,6.144,0,0,0,1.744-.992,1.806,1.806,0,0,1,1-.514.976.976,0,0,0,.454-1.717,21.844,21.844,0,0,0-2.745-1.464c-.766-.413-.538-1.035-.985-.824-.462.235-2.518-.211-3.149-.363a11.119,11.119,0,0,1-2.652-.824c-.457-.312-.639-.859-1.095-.951a2.561,2.561,0,0,0-1.042-.043c-.49.043-.869,0-1.089.043-.242.059-.461.361-.058.639a3.011,3.011,0,0,1,1.06,1.961,10.922,10.922,0,0,0,.087,1.683c.133.278-.372-.186-.591-.639s-.051-1.506-.6-2.045c-.546-.556-2.279-1.238-2.138-1.734s.412-1.135.918-1.187.91-.673.546-1-.831.361-1.235.04a15.285,15.285,0,0,0-2.141-1.312,8.1,8.1,0,0,0-3.367-.867c-.919-.049-1.279.043-1.279.456s-1.046.462-1.5.378a1.019,1.019,0,0,0-1.187.218c-.64.447-.876.084-1.087.447-.234.37-1.152.413-1.423.413a2.526,2.526,0,0,1-1.1-.092,12.717,12.717,0,0,0-4.361,0c-1.01.319-2.645.462-3.37,1.009-.741.546-.874.909-1.177,1.009-.338.076-1.289,0-1.517-.463a2.863,2.863,0,0,0-.689-.817,2.248,2.248,0,0,1-1.635-.058c-.86-.361-.723-.631-1.23-.68a2.836,2.836,0,0,1-1.734-.86c-.6-.59-.907-1.135-1.228-1.135s-.911-.462-1.415-.462-.5.5-.269.915a2.329,2.329,0,0,1,.269,1.818c-.269.5-.5,1.4-.817,1.464a.273.273,0,0,0-.042.538c.269.094.489.094-.285,1a3.517,3.517,0,0,0-1.079,2.147c0,.6-.186,1.724.405,2.085a24.11,24.11,0,0,1,1.87,1.55A13.328,13.328,0,0,0,308.7,268c.218.084.488.411.3.546a.38.38,0,0,0,.1.682,3.326,3.326,0,0,0,.9.135s.227-.178.5.588c.27.783-.043,1.321.186,2.189s.764,1.641.362,2.188a16.555,16.555,0,0,1-2.14,2.145c-.5.353-2,1.414-1.783,2.23a4.68,4.68,0,0,1,.05,2.137.54.54,0,0,0,0,.639c.186.227.04.725.092,1a10.836,10.836,0,0,0-.052,1.229c.094.218.185.723.6.958s.507.362.911.952a4.408,4.408,0,0,1,1,2.962,2.2,2.2,0,0,0,.911,2.228c.6.59.192,1.011.814,1.591.642.6,1.331,1.969,1.145,2.33a1.753,1.753,0,0,0-.049,1.272c.136.362-.454,1.64,1.145,1.869.639.092,3.091.866,3.647,1.05s1.91,1.364,2.734.454a11.363,11.363,0,0,0,1.366-2.363,2.892,2.892,0,0,1,2.239-.833c.81,0,2.644,1.044,3.772,1.412a26.824,26.824,0,0,1,4.11,1.381,5.058,5.058,0,0,0,2.324,2.087c1.952,1,3.906,1.818,4.5,2.087s1.278-.136,1.605.058c.314.178,1.374.683,1.374.683a5.688,5.688,0,0,1,1.363.269c.135.136,1.264.494,1.585,1.033a5.808,5.808,0,0,1,.463,2.425,4.343,4.343,0,0,1-.195,2.189c-.353.638-.909.907-.909,1.866a3.584,3.584,0,0,1-.5,2.458c-.59.867-1.228,1.685-1.592,2.323A13.516,13.516,0,0,1,340.17,318c-.353.457-.227.641-.454.825s-.723.085-1.044.631-.229,1.64-.556,2.046-.715.328-.673,1.228c.033.917-.6,1.05-.778.337-.184-.743-.233-1.65-1.329-1.466a11.889,11.889,0,0,0-2,.314c-.369.184-.546,1-.546,1.33a8.051,8.051,0,0,1-2.281,2.4,2.071,2.071,0,0,1-1.642-.048c-.556-.221-1.144,0-1.063-.634.1-.648.567-1.228.06-1.6a4.377,4.377,0,0,0-1.187-.679c-.229-.044-.5.556-.229.774s.556.46.447.917c-.084.461.387.587-.084.822a4.012,4.012,0,0,0-1.363,1.45c-.085.31-.549-.178-.641.133s-.133.371.092.549.145,1.009-.764,1.681c-.92.7-.92.1-1.156-.133-.208-.229-.631-.413-.631-.045s-.133,1.228-.133,1.559c0,.3-.145,1.262-.549,1.538a1.123,1.123,0,0,0-.5,1.043c0,.423,0,.918-.5.819s-.37-.314-.691-.222a2.214,2.214,0,0,1-1.635-.409c-.546-.413-.327-.917-.588-.818a3.618,3.618,0,0,0-1.331.818,6.191,6.191,0,0,1-1.817,1.361c-.507.187-.507.774-.775.774s-1.046-.587-1.771-.14-1.008.552-.7.914c.328.361.06.917-.218,1.136a1.508,1.508,0,0,0-.5.961c.05.184-1.095,1.187-1.644,1.051s-1.725-.546-1.725-.959a.989.989,0,0,0-.642-.992c-.411-.092-1.691-.28-1.725-.774-.049-.515-.235-.836-.462-.785s.126.723-.229.683-1.052,0-1.279-.041-.591-.311-.908.041-.817,1.817-1.271,1.96-.457-.412-.736-1.06c-.278-.621,0-1.17-.539-.941s-.687.545-.377.682c.328.143.6.32.6,1.091s-.179.825-.539,1.272-.137.876-.549.876-.311-.279-.5-.692a3.181,3.181,0,0,0-1.28-1.412c-.453-.136-.917.321-1.414.321s-1.228-.28-1.188.5c.043.763.145.763-.175,1.135s-.775.27-.691.689.092.631-.186.859-.546.092-.352.42c.176.3.775,1.129,1.043,1.17s.218.32.269.549,0,.6.178.781a1.141,1.141,0,0,1,.362.951c0,.556.286,2.053-.127,2.363s-1.86,1.32-2.274,1.146a1.437,1.437,0,0,0-1.019-.184,1.968,1.968,0,0,0-.907,1.313,4.017,4.017,0,0,1-1.821,2.462,5.127,5.127,0,0,1-2.491.951c-.328.195-.775,1.061-1.6,1.33s-1.232.86-1.373.631-.094-.951-.457-.4-.731,1.043-.5,1.32-.092.767-.42,1.186c-.3.413-.588,1-1.228,1s-.169-.7-.642,0a9.056,9.056,0,0,0-.807,1.043c-.32.536-.506,1.184-.186,1.361s.824.143.734.457-.363.327-.145.5a1.161,1.161,0,0,1,.186,1.227,4.964,4.964,0,0,1-1.281,1.955c-.857.736-1.043.913-1.456.5a4.01,4.01,0,0,0-2.1-.961c-.735-.041-3.545.276-4.279-.041s-2.466-1.231-2.466-1.828c0-.57-.464-.631-.817,0a5.96,5.96,0,0,1-1.549,2.1c-.59.327-.64-.17-.961-.136-.327.058-.723.286-.4.412.319.143-.37,1.463-1.012,1.961s-.721,0-.94.235a11.368,11.368,0,0,1-1.962,1.457,8.851,8.851,0,0,0-2.416,2.551,3.774,3.774,0,0,1-2.747.177c-.486-.372-1.179-2.224-1.817-3.284-.642-1.044-1.827-2.861-2.191-3.373-.355-.488-.319-.726-1.042-.58a6.177,6.177,0,0,1-3-.32c-.419-.331-1.247,0-1.144.368.083.362,1.457,1.541,1.767,1.944a1.234,1.234,0,0,1,.271,1.517,24.148,24.148,0,0,0-.817,4.181c-.179,1.313-.5,1.961-.268,2.5.225.556.452,1.235.191,1.412-.278.194-.152.743.034.876a1.916,1.916,0,0,1,.589,1.279,5.029,5.029,0,0,0,.55,1.9c.31.682,2.33,4.184,2.144,4.47-.184.27.186.454.237.672.035.229-.554.423-.237.641.321.236.5-.218.828.236a15.035,15.035,0,0,0,1.261,1.991,5.312,5.312,0,0,1,.827,2.285,13.476,13.476,0,0,0,1.549,3.557,6.678,6.678,0,0,1,.775,1.582c.234.413.554.143.867.092a6.455,6.455,0,0,1,1.641.648c.589.219,1.128.362.775.413a3.523,3.523,0,0,1-1.145-.092c-.355-.1-.951-.59-1.179-.236s0,.6-.236.723c-.22.144-.363.287,0,.689s.464.263.464,1.139.04,1.5.36,1.641.548-.556.548-.556a.481.481,0,0,1,.462.5,6.888,6.888,0,0,0,.313,1.825c.177.549.042,1.323.276,1.817s.49.236.312,1.146-.865.184-.679,1,.367.86-.136,1-.959.188-.775,1.187.64.992.826,1.858,0,1.324.589,1.869.943,1.146,1.455.733c.5-.412.464-.774.725-1.135.278-.372,1.155,0,.732.631-.411.648-.589.729-.5,1.33.092.586-.086,1.186.285,1.456.353.276.31,1.453.674,1.671s1.279.194,1.373.6a1.089,1.089,0,0,1-.145.822,11.932,11.932,0,0,1-.672,1.777c-.287.412.083,1.053.176,1.227s.042,2.046-.413,2.132-.908-.5-1.186-.532c-.271-.058-.582.228-.817.59s-.1.361.083.631a.713.713,0,0,1-.269.961c-.371.225-.824,0-1.227.184s-1,1-1.13.866c-.151-.143-.926.086-.641.4.261.328-.5.975-.775.975s-.454.5-.235.532c.235.058.034.914-.176.74-.237-.194-.237-.774-.462-.74-.238.058-1.6.822-1.718.454-.152-.355-.649-.454-.794-.314s.053.549-.032,1.1a5.763,5.763,0,0,1-.186.774s-.69.539-.908.454c-.237-.092-.834-.058-.776.354a2.279,2.279,0,0,0,.128.638c.049.137-.413,1.415-.633,1.415s-.184-.538-.371-.456-.269.508-.539.456-.184-.412-.37-.361c-.176.031-.3.6-.507.269a.845.845,0,0,1,0-1c.279-.321.331-.6-.621-.546s-1.87-.365-2,.269c-.152.638-.331,1.153-.684.959-.379-.184-.7-.723-.875-.723a.734.734,0,0,0-.6.774,2.422,2.422,0,0,1-1.177,1.95,1.741,1.741,0,0,0-1.137,1.314c-.092.555-.051.688-.549,1.06a7.669,7.669,0,0,0-1.734,1.313c-.539.648-.588,1.009-.916,1.009a10.256,10.256,0,0,1-1.5-.6,10.18,10.18,0,0,0-2.922-.086c-.447.041-.353.178-.268.406s2.095.232,2.095.232a12.257,12.257,0,0,0,0,2.544c.186.184.6.825.381,1.136a2.373,2.373,0,0,0-.338.7,2.327,2.327,0,0,1,.37.665c.043.235-.37.1-.775-.034s-.31-.785-.824-.74c-.5.058-.674.143-.774-.086a.591.591,0,0,0-.539-.361c-.238,0-.826.31-.826-.184v-1.647h-1.959v2.513c-.138,0,.555,1,.78,1.279s.085,1.187.085,1.187l-.865.081v1.191l-1,.235v.514h2.32l.682-.937v-2.063h0v2h1v-1h0v1h1v2h-1v1h0v-1h1v1.551l.888.259-.1.613-.922-.485-1.892,1.062h-.979v1h-1.46s-.36-.559-.546-.515-.032.5-.032.5a2.413,2.413,0,0,1-.828-.041,1.124,1.124,0,0,0-.556.041l.186.5-.454.819a6.11,6.11,0,0,0,.732,1.094c.126.048,1.138,1.689,1.542,2.009.42.3,3.7,1.279,4.293,2.265a6.584,6.584,0,0,0,2.005,2.155c.454.218,1.641,1.589,2.24,1.674s1.86.048,1.532.191a7.694,7.694,0,0,1-2.045.406c-.642,0-1.273.225-1.231.464.05.218.176.815-.186.579a6.832,6.832,0,0,1-2.279-2.087c-.355-.866.285-1.691.05-2.366a2.636,2.636,0,0,0-1.592-1.78c-.91-.314-1.642-.635-2.232-.778a9.239,9.239,0,0,1-2.375-1.5,5.05,5.05,0,0,0-1.868-.825c-.591-.127-1.466-1.364-1.684-1.453a5.117,5.117,0,0,0-2.191,1.136,3.107,3.107,0,0,0-.539,1.36s-1.229.413-1.229,1.054-.184,2.541-.691,2.868c-.486.32-1.767.917-1.32,1.456s.834,2.094,1.363,2.694c.548.587,1.136.856,1.388,1.221v3.052c-.252,0,.827.2,1.028,0s.693,0,.693,0,.909,1.777.764,2.053,0,.6-.5.6.014.515.014.515v1.64h.121c0-.116.051.716.415.716s-.053.4-.415.447-.5.368-.235.5c.286.133.6.269.6.269s.413.587.278.958-.993.5-1.331.5a.847.847,0,0,0-.539.229s.321.631.135.764-.5.228-.411.412.276.454.411.406.321.6.321.6-.227.177-.185.317.606.188.838.188v-1.187c-.232-.4-.384-1.136-.2-1.136a11.945,11.945,0,0,0,1.373-.269c.321-.092.954-.188,1.095.177s-.228.362-.834.362a5.75,5.75,0,0,0-1.263.184l.135,1.909s1.374.28,1.507.28,2.593-.143,2.905-.143a18.96,18.96,0,0,0,1.87-.365l.277.726-1.456.184a2.059,2.059,0,0,1,.371.6c.092.27.041.819,0,.631s-.185-.59-.424-.59c-.218,0-.856.061-.856.061l-1.821.3-.319.555-3.014.809.96,4.014-.539.59s-.143.589.084.555c.22-.051.5-.092.5-.092l.133,1.228-.311.051.219.682s.336-.143.37,0a3.647,3.647,0,0,1,.051.679l1.087-.467s-.4-1.634-.4-1.9-.145-.59-.195-.952c-.034-.371,2.375-.733,2.375-.733l.1.825-.732.178.133.764,1-.226.135.328,1.466-.587.682-.238s.463.371.5.5c.049.144.141,1.33.141,1.33s-.638.277-.638.133-.094-.818-.094-.818l-1.363.818.27,1.416c.276.269.042.63,0,.774-.051.126-.826.808-.869,1.128s-.413,1.825-.413,1.825l1.179.372a9.758,9.758,0,0,1-.808,2.094c-.371.453-.371,1.033-.546,1.278a1.874,1.874,0,0,0-.464,1.269,14.07,14.07,0,0,1-.033,1.954c-.049.276-.049,1.6-.049,1.869s-.137.917-.406.917c-.287,0-.422.723-.187.863s.221,1.095,0,1.633a1.335,1.335,0,0,0,.407,1.375A.929.929,0,0,0,227.846,509.183Z" transform="translate(-39.631)" style="fill:#66b72f"/><path d="M268.438,489.053c-.36.245-.5.269-.723.59s-.454.5-.227.815.64.453,1.278.133.86-.587,1.013-.628c.133-.051.4-.5-.059-.593S268.853,488.776,268.438,489.053Z" transform="translate(-39.631)" style="fill:#66b72f"/><path d="M281.936,481.765c.271.1.184.774-.186.866a.534.534,0,0,0-.454.362c-.085.187-.321.447-.36.187-.043-.279.461-.457.317-.692s-.5-.269-.36-.59.261-.5.589-.545S281.936,481.765,281.936,481.765Z" transform="translate(-39.631)" style="fill:#66b72f"/><path d="M281.886,483.709c-.192.423-.034.423-.355.287s-.235-.413.086-.59S281.936,483.627,281.886,483.709Z" transform="translate(-39.631)" style="fill:#66b72f"/><path d="M321.613,411.955c-.489.327-.81.413-.489.723s.228,1.272.588,1.408.961.185,1.468.328a3.033,3.033,0,0,1,1.446.948c.185.331.555,1.094.741.733a1.17,1.17,0,0,0-.186-1.371,17.525,17.525,0,0,1-1.008-1.541,6.523,6.523,0,0,1-.591-1.1C323.5,411.72,322.033,411.679,321.613,411.955Z" transform="translate(-39.631)" style="fill:#66b72f"/><path d="M470.581,239.805c-.219.1-.268.462.051.462a1.347,1.347,0,0,1,.994.456c.193.269.792.5.739.092a3.764,3.764,0,0,0-.285-.866c-.032-.186-.454.051-.774-.144A.942.942,0,0,0,470.581,239.805Z" transform="translate(-39.631)" style="fill:#66b72f"/><path d="M386.466,272.876c-.651.261-.768-.353-.366-.548s.818,0,1.014-.226c.176-.227.486-.556.867-.37.353.186.774.464.993.556.235.083.638.5.1.588-.556.092-.457.453-.962.545a.944.944,0,0,1-.925-.368A.742.742,0,0,0,386.466,272.876Z" transform="translate(-39.631)" style="fill:#66b72f"/><path d="M361.869,285.582a5.285,5.285,0,0,1,.178-1.362c.083-.733.041-1.373.267-1.473.219-.067.4.327.726.235s.506.588.327,1.061c-.193.446-.327.68-.681.806-.372.137-.372.278-.453.59C362.13,285.766,361.912,285.852,361.869,285.582Z" transform="translate(-39.631)" style="fill:#66b72f"/><path d="M356.49,268.045c.15.329.774.186,1.042-.133s.556-.816.683-.547a6.153,6.153,0,0,1,.092,2.179,2.992,2.992,0,0,0,.506,2.062c.3.352.858.682.775,1.186a.977.977,0,0,0,.227,1.035,11.023,11.023,0,0,0,2.232,1.7c.4.211.993-.091.866.446-.134.556-.641,1.279-.4,1.5.208.234.621.319.721,1,.075.682-.143.774-.235,1.238-.084.445.177,1.773-.176,1.446-.37-.312-.288-.766-.549-1.127a5.336,5.336,0,0,0-2.331-1.238,6.865,6.865,0,0,1-2.131-1.185c-.691-.413-1.1-1.221-1.733-1.035-.649.175-1.729.95-1.729,1.54s.036,1.33-.148,1.219a10.249,10.249,0,0,0-1.5-.858c-.321-.043-.447-.043-.592-.581-.133-.556-.184-1.1-.367-1.061-.186.06-.365.278-.592.278a3.119,3.119,0,0,1-.908-.5s-.052.673-.4.312c-.37-.353-.462-.993-.775-1.364s0-.6,0-.858a2.738,2.738,0,0,0,.035-1.144c-.137-.5-.086-.774.151-1,.219-.227.36-.907.084-1.134s.135-.177.539-.237c.42-.032.782-.682.732-1.043s.05-.682.463-.725.952-.6.952-.278.126.684.505.684c.353,0,.6-.5.866-.539s.4.261.539-.094c.144-.37.1-1.144.6-1.328S356.338,267.767,356.49,268.045Z" transform="translate(-39.631)" style="fill:#66b72f"/><path d="M358.982,270.865c-.129-.337-.129-.589.236-.724s.6.135.37.278S359.173,271.328,358.982,270.865Z" transform="translate(-39.631)" style="fill:#66b72f"/><path d="M347.832,279.894c-.1-.111.126-.278-.049-.5s.225-.5.454-.235S348.237,280.339,347.832,279.894Z" transform="translate(-39.631)" style="fill:#66b72f"/><path d="M356.665,253.286a4.084,4.084,0,0,1,2.416.883c.37.447,1.145.573,1.363.716.236.144.186.732.052,1.044a6.857,6.857,0,0,0,0,2.331c.134.276.406.631,0,.857s-1.045,1.6-1.381,1.961c-.3.37-.355.582-.774.5-.394-.093.017-.127-.034-.456s-.638-.445-.638-.319-.219.236-.4.195c-.186-.058-.288-.413-.684-.372s-.764-.041-1.641-1.362-1.145-3.332-.69-4.057.867-1.454,1.364-1.5A2.757,2.757,0,0,0,356.665,253.286Z" transform="translate(-39.631)" style="fill:#66b72f"/><path d="M301.891,277.925a5.951,5.951,0,0,0-3,1.507,2.24,2.24,0,0,0-.15,2.962c.875,1.362,1.277,2,1.059,3.011a3.556,3.556,0,0,0,.087,2.626c.41.5,1.008.049,1.145-.682a6.7,6.7,0,0,1,1.715-2.86c.776-.692,2.24-2.18,2.342-3.417A3.132,3.132,0,0,0,301.891,277.925Z" transform="translate(-39.631)" style="fill:#66b72f"/><path d="M303.205,335.9c-.321.082-.993-.508-.774-.74.245-.222.825.058,1.01.058S303.577,335.812,303.205,335.9Z" transform="translate(-39.631)" style="fill:#66b72f"/><path d="M292.142,342.551c-.235.228-.489.5-.774.5s-.236.368.151.5c.354.133.666.362.807-.085C292.463,343,292.326,342.366,292.142,342.551Z" transform="translate(-39.631)" style="fill:#66b72f"/><path d="M291.407,345.108c.263-.211.507.672.112.672C291.1,345.78,291.055,345.371,291.407,345.108Z" transform="translate(-39.631)" style="fill:#66b72f"/><path d="M222.472,470.876c-.4-.051-.688.321-1.009.178s-.4-.413-.868-.259c-.445.115-.36.494-.135.907a1.072,1.072,0,0,0,1.145.538,2.885,2.885,0,0,0,1.138-.63A.453.453,0,0,0,222.472,470.876Z" transform="translate(-39.631)" style="fill:#66b72f"/><path d="M227.072,497.974c.175-.147.368.276.049.368S226.792,498.2,227.072,497.974Z" transform="translate(-39.631)" style="fill:#66b72f"/><path d="M385.824,326.673c-.058.126.068.194.167.266.109.095.481.33.539.573s.415.361.454.034-.039-.764-.233-.815-.388.058-.623-.058C385.892,326.529,385.839,326.6,385.824,326.673Z" transform="translate(-39.631)" style="fill:#66b72f"/><path d="M372.872,332.177c.212,0,.289.385.036.419C372.671,332.647,372.707,332.177,372.872,332.177Z" transform="translate(-39.631)" style="fill:#66b72f"/><path d="M372.031,333.5c.161-.034.345.481.017.481S371.71,333.571,372.031,333.5Z" transform="translate(-39.631)" style="fill:#66b72f"/><path d="M329.779,436.358l-1.725.184a3.779,3.779,0,0,0,.261,1.272c.268.631-.085,3.189-.81,3.55a1.465,1.465,0,0,0-.638,1.371s.453.539.732.819a1.063,1.063,0,0,0,.808.177s.176.914,1.01.914c.818,0,.546-1.091.546-1.371,0-.259,0-.631.55-.723s1.179-.269.9-.815a5.179,5.179,0,0,1-.355-2.827c.271-.549.186-.085.271-.549s-.271-.546-.456-1.268S330.335,436.358,329.779,436.358Z" transform="translate(-39.631)" style="fill:#66b72f"/><path d="M343,424.157c0-.379.722.184.722.545s.725,1.364.271,1.549S343,424.788,343,424.157Z" transform="translate(-39.631)" style="fill:#66b72f"/><path d="M347.276,419.7a1.618,1.618,0,0,1-.454.631.888.888,0,0,0,.648,1.456c1.087.184.994-.631,1.447-.733s.458-.638,0-.805c-.453-.187-.546-.917-.546-.917s0,.638-.363.638A1.476,1.476,0,0,1,347.276,419.7Z" transform="translate(-39.631)" style="fill:#66b72f"/><path d="M338.073,413.681c-.589.3-1.828.555-1.725.992.084.471.184,3.1-.37,2.834s-2.172-1.641-2.275-2.462a9.979,9.979,0,0,0-.286-2.282,9.472,9.472,0,0,1-.623-2.179c-.1-.733.085-.549.546-.549a2.715,2.715,0,0,1,1.088.372,5.645,5.645,0,0,1,.818-.556c.377-.184,2.281,1.279,2.733,1.364s.828.286.549.74S338.807,413.319,338.073,413.681Z" transform="translate(-39.631)" style="fill:#66b72f"/><path d="M338.993,395.831c-.272.086-3.926,2.551-3.926,2.551l-1.818-1.094-1.557.818s-.9-.28-1.179-.1c-.278.194-.278,1.009-.092,1.279.184.286.723,1.473.909,1.916a5.314,5.314,0,0,1,.362,2.374c-.176.457-.548.538-.548.818a1.594,1.594,0,0,0,.27.742h2.743c0,.08-.186,1.168.355,1.27s0-.651.195-1.013c.175-.361.992.086.992.086s.093,1.019-.179,1.278c-.274.28.557.362.642-.177a3.293,3.293,0,0,1,.454-1.1l1.549-1.365,2.916-3,.285-1.361-1.307-.825v-.453c.111,0,.389.453.843.637a3.221,3.221,0,0,0,1,.178l.184.327.355.044.05.6.567-.044v-1.286c-.2,0,.932-.218,1.024-.361s.918-.911.918-.911a6.059,6.059,0,0,0,1.272-.5.411.411,0,0,1,.329-.218c.116,0,.488.682.993.59s.824-1.088.96-1.146c.135-.041.54.093.818-.041s-.278-.6-.458-.774-.081-.406-.039-.682-.186-.5-.239-.91c-.032-.41.507-.133.642.136s.269-.672-.184-.859-.633.095-.676-.556c-.05-.631,0-1.732-.278-1.732a13.235,13.235,0,0,1-1.353-.229l-.742.416s-.178-.549-.227-.716c-.045-.2.135-.556.37-.556a5.126,5.126,0,0,0,1.134-.6,2.082,2.082,0,0,0-.267-1.013,5.851,5.851,0,0,1-.413-1.3c-.094-.092-.556.453-.732.624-.186.2-.91.6-.961.791a1.463,1.463,0,0,1-.774.815,5,5,0,0,0-2.322.815c-.726.631-.994.87-.775,1.279s-.828,1.869-1,2.056a1.788,1.788,0,0,0-.321,1.269c.092.4-.176,1.227-.041,1.313a5.918,5.918,0,0,1,.227,1.422s-.186.041-.186-.109c0-.12-.268-1.078-.268-1.078Z" transform="translate(-39.631)" style="fill:#66b72f"/><path d="M347.494,385.263c-.169-.269-.943-1.548-.571-1.674a8.33,8.33,0,0,0,1.861-1.238c.313-.361.362-1.228.548-1.279s.589.051.723-.041a2.984,2.984,0,0,1,1.557-.279,3.5,3.5,0,0,1,.817.371s-1.053,2.323-1.145,2.769a3.907,3.907,0,0,1-.589,1.515c-.218.177-.218.354-.268.682s-.1,2.087-.414,1.991c-.328-.082-1.406-.815-1.642-.672s-.506-.6-.506-.6.186-.9,0-.9-.311.685-.454.819-.691.085-.621-.178c.032-.276,0-.723.133-.781l.723-.177Z" transform="translate(-39.631)" style="fill:#66b72f"/><path d="M320.6,425.149c-.37,0-.278.624.069.624S320.8,425.149,320.6,425.149Z" transform="translate(-39.631)" style="fill:#66b72f"/><path d="M317.529,473.032A11.79,11.79,0,0,1,315,474.689a9.173,9.173,0,0,0-2.191,1.153c-.4.269-2.591,1.026-3.284,1.851-.681.809-.959,1.7-.741,1.777.2.058.48,1.016.952.8.482-.191,2.113-2.244,2.6-2.455.471-.2,1.969-.74,2.314-1.3a5.239,5.239,0,0,1,.827-1.228,16.983,16.983,0,0,0,1.843-1.163c.556-.481,1.162-.815.884-.958A1.681,1.681,0,0,0,317.529,473.032Z" transform="translate(-39.631)" style="fill:#66b72f"/><path d="M296.478,481.649c.353-.085.261.478-.144.546S295.922,481.782,296.478,481.649Z" transform="translate(-39.631)" style="fill:#66b72f"/><path d="M272.707,245.679a12.551,12.551,0,0,1-4.731-1.137c-2-.8-3.738-.992-4.994,0a4.137,4.137,0,0,0-1.811,2.408,11.936,11.936,0,0,1-1.211,2.869c-.387.589.278,2.66,1.008,3.644.743,1.01,1.215,2.011,2.343,2.205a48.067,48.067,0,0,0,6.2.075c.993-.075,5.861-.6,6.6-.53.725.059,2.863,1.86,3.6,2a6.329,6.329,0,0,0,2.334-.135,3.664,3.664,0,0,1,2.322-.926c1.753-.143,4.346-.278,4.278-.934a8.3,8.3,0,0,1,.793-2.667c.268-.665.268-2.87-.926-3.467-1.212-.6-2.343-.8-2.747-1.531s-.251-1.128-1.4-1.8c-1.127-.663-1.986-2.128-3.518-2a6.086,6.086,0,0,0-3.4,1,3.255,3.255,0,0,1-2.14.934c-.723,0-1.33-.26-1.735-.26A2.183,2.183,0,0,0,272.707,245.679Z" transform="translate(-39.631)" style="fill:#66b72f"/><path d="M283.57,280.315c.328.125.529.672-.066.74s-.676.464-.128.665a4.052,4.052,0,0,0,2.054.2c.732-.134,1.138-.335.278-1.077-.877-.723-1.532-1.6-2.071-1.791s-.933.336-1.415.935c-.455.605-.588,1-.25,1.067s.6-.135.856-.547A.633.633,0,0,1,283.57,280.315Z" transform="translate(-39.631)" style="fill:#66b72f"/><path d="M42.369,376.633v-.751s1.681-.253,1-.733V356.577c.681-.5.2-.747-1-.747v-1.2h13.8s4.4.958,5.8,1.91c1.415.968,2.123,2.625,2.123,4.931q0,3.5-2.123,4.924a8.52,8.52,0,0,1-5.8,1.235h-7.8v7.516c.056.48,1,.733,1,.733v.751Zm13.827-13a4.034,4.034,0,0,0,2.073-.514,2.708,2.708,0,0,0,0-3.972,4.044,4.044,0,0,0-2.073-.514H48.372v5Z" transform="translate(-39.631)" style="fill:none;stroke:#fff;stroke-linecap:round;stroke-linejoin:round;stroke-width:5.474670000000001px"/><path d="M42.369,376.633v-.751s1.681-.253,1-.733V356.577c.681-.5.2-.747-1-.747v-1.2h13.8s4.4.958,5.8,1.91c1.415.968,2.123,2.625,2.123,4.931q0,3.5-2.123,4.924a8.52,8.52,0,0,1-5.8,1.235h-7.8v7.516c.056.48,1,.733,1,.733v.751Zm13.827-13a4.034,4.034,0,0,0,2.073-.514,2.708,2.708,0,0,0,0-3.972,4.044,4.044,0,0,0-2.073-.514H48.372v5Z" transform="translate(-39.631)" style="fill:#fff"/><path d="M79.415,358.37a13.113,13.113,0,0,1,3.975.58,9.052,9.052,0,0,1,3.25,1.716,7.92,7.92,0,0,1,2.188,2.888,10.511,10.511,0,0,1,0,8.126,7.924,7.924,0,0,1-2.188,2.9,8.378,8.378,0,0,1-3.25,1.64,15.457,15.457,0,0,1-7.966,0,8.354,8.354,0,0,1-3.251-1.64,8.147,8.147,0,0,1-2.2-2.9,10.619,10.619,0,0,1,0-8.126,8.144,8.144,0,0,1,2.2-2.888,9.024,9.024,0,0,1,3.251-1.716,13.116,13.116,0,0,1,3.991-.58m0,3.029a6.928,6.928,0,0,0-2.409.429,6.467,6.467,0,0,0-2.1,1.228A5.992,5.992,0,0,0,73.419,365a6.439,6.439,0,0,0,0,5.235,6.052,6.052,0,0,0,1.491,1.943,6.85,6.85,0,0,0,2.1,1.238,7.064,7.064,0,0,0,4.8,0,7.192,7.192,0,0,0,2.1-1.238,5.89,5.89,0,0,0,1.482-1.943,6.439,6.439,0,0,0,0-5.235,5.833,5.833,0,0,0-1.482-1.944,6.771,6.771,0,0,0-2.1-1.228,6.894,6.894,0,0,0-2.39-.429" transform="translate(-39.631)" style="fill:none;stroke:#fff;stroke-linecap:round;stroke-linejoin:round;stroke-width:5.474670000000001px"/><path d="M79.415,358.37a13.113,13.113,0,0,1,3.975.58,9.052,9.052,0,0,1,3.25,1.716,7.92,7.92,0,0,1,2.188,2.888,10.511,10.511,0,0,1,0,8.126,7.924,7.924,0,0,1-2.188,2.9,8.378,8.378,0,0,1-3.25,1.64,15.457,15.457,0,0,1-7.966,0,8.354,8.354,0,0,1-3.251-1.64,8.147,8.147,0,0,1-2.2-2.9,10.619,10.619,0,0,1,0-8.126,8.144,8.144,0,0,1,2.2-2.888,9.024,9.024,0,0,1,3.251-1.716,13.116,13.116,0,0,1,3.991-.58m0,3.029a6.928,6.928,0,0,0-2.409.429,6.467,6.467,0,0,0-2.1,1.228A5.992,5.992,0,0,0,73.419,365a6.439,6.439,0,0,0,0,5.235,6.052,6.052,0,0,0,1.491,1.943,6.85,6.85,0,0,0,2.1,1.238,7.064,7.064,0,0,0,4.8,0,7.192,7.192,0,0,0,2.1-1.238,5.89,5.89,0,0,0,1.482-1.943,6.439,6.439,0,0,0,0-5.235,5.833,5.833,0,0,0-1.482-1.944,6.771,6.771,0,0,0-2.1-1.228,6.894,6.894,0,0,0-2.39-.429" transform="translate(-39.631)" style="fill:#fff"/><path d="M100.406,358.633v.73s-.833.2-1,.614v13.656h10.558a1.7,1.7,0,0,0,.758-.268c.211-.143.311-.732.311-.732h.381v4h-.381a.578.578,0,0,1-.311.04c-.2-.044-.454-.061-.758.96H94.4v-1.751c1.145,0,1.465-.2,1-.614V359.977c.464-.413-1-.614-1-.614v-.73Z" transform="translate(-39.631)" style="fill:none;stroke:#fff;stroke-linecap:round;stroke-linejoin:round;stroke-width:5.474670000000001px"/><path d="M100.406,358.633v.73s-.833.2-1,.614v13.656h10.558a1.7,1.7,0,0,0,.758-.268c.211-.143.311-.732.311-.732h.381v4h-.381a.578.578,0,0,1-.311.04c-.2-.044-.454-.061-.758.96H94.4v-1.751c1.145,0,1.465-.2,1-.614V359.977c.464-.413-1-.614-1-.614v-.73Z" transform="translate(-39.631)" style="fill:#fff"/><path d="M132.9,362.633c0-.73-.4-.972-1.2-1H122.42v4h5.815a1.823,1.823,0,0,0,.97-.009c.2-.051.31-.252.31-.991h.91v5h-1c.085-.527-.024-.694-.312-.769s-.681-.1-1.187-.231H122.42v5h9.74a1.745,1.745,0,0,0,.774-.268c.2-.143.3-.732.3-.732h1.192v4h-1.192a.557.557,0,0,1-.3.04c-.2-.044-.463-.061-.774.96H117.417v-1.751c.747,0,.882-.034,1.008-.143.126-.086.193-.246-.008-.471V359.977c.2-.229.134-.379.008-.488a4.515,4.515,0,0,0-1.008-.126v-.73H131.7c.792-.02,1.2-.263,1.2-1h.528v5Z" transform="translate(-39.631)" style="fill:none;stroke:#fff;stroke-linecap:round;stroke-linejoin:round;stroke-width:5.474670000000001px"/><path d="M132.9,362.633c0-.73-.4-.972-1.2-1H122.42v4h5.815a1.823,1.823,0,0,0,.97-.009c.2-.051.31-.252.31-.991h.91v5h-1c.085-.527-.024-.694-.312-.769s-.681-.1-1.187-.231H122.42v5h9.74a1.745,1.745,0,0,0,.774-.268c.2-.143.3-.732.3-.732h1.192v4h-1.192a.557.557,0,0,1-.3.04c-.2-.044-.463-.061-.774.96H117.417v-1.751c.747,0,.882-.034,1.008-.143.126-.086.193-.246-.008-.471V359.977c.2-.229.134-.379.008-.488a4.515,4.515,0,0,0-1.008-.126v-.73H131.7c.792-.02,1.2-.263,1.2-1h.528v5Z" transform="translate(-39.631)" style="fill:#fff"/><path d="M142.1,370.371c0,.1-.016.208-.026.334s-.026.252-.026.4a1.374,1.374,0,0,0,.741,1.118,6.734,6.734,0,0,0,1.751.853,16.106,16.106,0,0,0,2.039.562,8.78,8.78,0,0,0,1.6.2,11.225,11.225,0,0,0,1.311-.086,7.358,7.358,0,0,0,1.568-.334,4.211,4.211,0,0,0,1.314-.74,1.613,1.613,0,0,0,.529-1.255,1.363,1.363,0,0,0-.935-1.3,10.431,10.431,0,0,0-2.374-.641q-1.414-.216-3.074-.447a14.77,14.77,0,0,1-3.072-.747,6.236,6.236,0,0,1-2.376-1.467,3.713,3.713,0,0,1-.943-2.717,4.992,4.992,0,0,1,2.038-4.164,9.264,9.264,0,0,1,5.743-1.566,13.826,13.826,0,0,1,5.272.993c.589.245,1.059.464,1.447.672a1.9,1.9,0,0,0,.817.3.929.929,0,0,0,.463-.1,3.525,3.525,0,0,1,.387-.239l.421.464-1.92,3.847-.7-.263c-.017-.15-.043-.317-.069-.487a.872.872,0,0,0-.354-.488,6.17,6.17,0,0,0-2.391-1.187,12.517,12.517,0,0,0-3.6-.487,9.059,9.059,0,0,0-1.467.109,4.04,4.04,0,0,0-1.227.337,2.484,2.484,0,0,0-.844.631,1.459,1.459,0,0,0-.3.976,1.3,1.3,0,0,0,.934,1.278,9.785,9.785,0,0,0,2.367.614c.952.154,1.969.314,3.081.454a14.578,14.578,0,0,1,3.065.75,5.9,5.9,0,0,1,2.375,1.565,3.959,3.959,0,0,1,.943,2.81,4.978,4.978,0,0,1-.827,2.964,6.165,6.165,0,0,1-2.052,1.79,7.767,7.767,0,0,1-2.721.86,17.983,17.983,0,0,1-2.786.2,13.526,13.526,0,0,1-2.594-.259,23.657,23.657,0,0,1-2.35-.614c-.706-.236-1.3-.447-1.794-.648a3.725,3.725,0,0,0-.883-.321.608.608,0,0,0-.464.253l-.536-.413,1.766-4.576Z" transform="translate(-39.631)" style="fill:none;stroke:#fff;stroke-linecap:round;stroke-linejoin:round;stroke-width:5.474670000000001px"/><path d="M142.1,370.371c0,.1-.016.208-.026.334s-.026.252-.026.4a1.374,1.374,0,0,0,.741,1.118,6.734,6.734,0,0,0,1.751.853,16.106,16.106,0,0,0,2.039.562,8.78,8.78,0,0,0,1.6.2,11.225,11.225,0,0,0,1.311-.086,7.358,7.358,0,0,0,1.568-.334,4.211,4.211,0,0,0,1.314-.74,1.613,1.613,0,0,0,.529-1.255,1.363,1.363,0,0,0-.935-1.3,10.431,10.431,0,0,0-2.374-.641q-1.414-.216-3.074-.447a14.77,14.77,0,0,1-3.072-.747,6.236,6.236,0,0,1-2.376-1.467,3.713,3.713,0,0,1-.943-2.717,4.992,4.992,0,0,1,2.038-4.164,9.264,9.264,0,0,1,5.743-1.566,13.826,13.826,0,0,1,5.272.993c.589.245,1.059.464,1.447.672a1.9,1.9,0,0,0,.817.3.929.929,0,0,0,.463-.1,3.525,3.525,0,0,1,.387-.239l.421.464-1.92,3.847-.7-.263c-.017-.15-.043-.317-.069-.487a.872.872,0,0,0-.354-.488,6.17,6.17,0,0,0-2.391-1.187,12.517,12.517,0,0,0-3.6-.487,9.059,9.059,0,0,0-1.467.109,4.04,4.04,0,0,0-1.227.337,2.484,2.484,0,0,0-.844.631,1.459,1.459,0,0,0-.3.976,1.3,1.3,0,0,0,.934,1.278,9.785,9.785,0,0,0,2.367.614c.952.154,1.969.314,3.081.454a14.578,14.578,0,0,1,3.065.75,5.9,5.9,0,0,1,2.375,1.565,3.959,3.959,0,0,1,.943,2.81,4.978,4.978,0,0,1-.827,2.964,6.165,6.165,0,0,1-2.052,1.79,7.767,7.767,0,0,1-2.721.86,17.983,17.983,0,0,1-2.786.2,13.526,13.526,0,0,1-2.594-.259,23.657,23.657,0,0,1-2.35-.614c-.706-.236-1.3-.447-1.794-.648a3.725,3.725,0,0,0-.883-.321.608.608,0,0,0-.464.253l-.536-.413,1.766-4.576Z" transform="translate(-39.631)" style="fill:#fff"/><path d="M167.448,375.882c.631,0,.75-.051.883-.143s.118-.471.118-.471V361.633h-4.924a1.181,1.181,0,0,0-.582.189c-.186.1-.269.276-.269.811h-1.229v-5h.7a.93.93,0,0,0,.272.794.954.954,0,0,0,.59.206H176.9a.948.948,0,0,0,.58-.206.934.934,0,0,0,.282-.794h.692v5h-.382c0-.535-.093-.713-.278-.811a1.682,1.682,0,0,0-.572-.189h-4.772v13.635c-.229.409,0,.614,1,.614v.751h-6Z" transform="translate(-39.631)" style="fill:none;stroke:#fff;stroke-linecap:round;stroke-linejoin:round;stroke-width:5.474670000000001px"/><path d="M167.448,375.882c.631,0,.75-.051.883-.143s.118-.471.118-.471V361.633h-4.924a1.181,1.181,0,0,0-.582.189c-.186.1-.269.276-.269.811h-1.229v-5h.7a.93.93,0,0,0,.272.794.954.954,0,0,0,.59.206H176.9a.948.948,0,0,0,.58-.206.934.934,0,0,0,.282-.794h.692v5h-.382c0-.535-.093-.713-.278-.811a1.682,1.682,0,0,0-.572-.189h-4.772v13.635c-.229.409,0,.614,1,.614v.751h-6Z" transform="translate(-39.631)" style="fill:#fff"/><path d="M181.457,375.9a1.17,1.17,0,0,0,.743-.463,4.92,4.92,0,0,0,.432-.734l5.639-13.286c.159-.379.273-.689.357-.918a1.87,1.87,0,0,0,.134-.682.425.425,0,0,0-.085-.31c-.066-.034-.133-.075-.215-.126v-.751h6v.751a.671.671,0,0,1-.242.109c-.08.044-.121.136-.121.327a1.56,1.56,0,0,0,.162.607c.112.235.235.5.356.781l5.961,13.911a1.456,1.456,0,0,0,.412.532,1.323,1.323,0,0,0,.476.252v.73h-5V376c-.23,0-.088-.041.055-.116a.5.5,0,0,0,.2-.454,1.222,1.222,0,0,0-.067-.44c-.049-.15-.119-.317-.194-.521l-1.036-2.834h-8.234l-1.087,2.69c-.109.219-.176.423-.244.59a1.414,1.414,0,0,0-.1.488c0,.218.067.355.193.385a1.106,1.106,0,0,0,.507.1v.751h-5Zm12.741-7.27-3.124-6.864-2.736,6.864Z" transform="translate(-39.631)" style="fill:none;stroke:#fff;stroke-linecap:round;stroke-linejoin:round;stroke-width:5.474670000000001px"/><path d="M181.457,375.9a1.17,1.17,0,0,0,.743-.463,4.92,4.92,0,0,0,.432-.734l5.639-13.286c.159-.379.273-.689.357-.918a1.87,1.87,0,0,0,.134-.682.425.425,0,0,0-.085-.31c-.066-.034-.133-.075-.215-.126v-.751h6v.751a.671.671,0,0,1-.242.109c-.08.044-.121.136-.121.327a1.56,1.56,0,0,0,.162.607c.112.235.235.5.356.781l5.961,13.911a1.456,1.456,0,0,0,.412.532,1.323,1.323,0,0,0,.476.252v.73h-5V376c-.23,0-.088-.041.055-.116a.5.5,0,0,0,.2-.454,1.222,1.222,0,0,0-.067-.44c-.049-.15-.119-.317-.194-.521l-1.036-2.834h-8.234l-1.087,2.69c-.109.219-.176.423-.244.59a1.414,1.414,0,0,0-.1.488c0,.218.067.355.193.385a1.106,1.106,0,0,0,.507.1v.751h-5Zm12.741-7.27-3.124-6.864-2.736,6.864Z" transform="translate(-39.631)" style="fill:#fff"/><path d="M217.244,358.633a10.425,10.425,0,0,1,5.439,1.214,4.466,4.466,0,0,1,1.949,4.106,4.738,4.738,0,0,1-.4,1.985,4.945,4.945,0,0,1-1.035,1.473,5.747,5.747,0,0,1-1.416,1.034,8.129,8.129,0,0,1-1.606.589L224,374.876a2.13,2.13,0,0,0,.683.672,3.287,3.287,0,0,0,.8.355v.73h-6v-.711c.351,0,.516-.106.516-.352a2.608,2.608,0,0,0-.584-1.232l-3.1-4.705h-5.834v5.635a3.167,3.167,0,0,1,.866.471c.152.092.321.143.135.143v.751h-5v-.751c.693,0,.911-.2,1-.614V359.977c-.09-.413-1-.614-1-.614v-.73Zm.66,8q3.972,0,3.973-2.674a1.925,1.925,0,0,0-.954-1.707,5.6,5.6,0,0,0-3.019-.619h-6.427v5Z" transform="translate(-39.631)" style="fill:none;stroke:#fff;stroke-linecap:round;stroke-linejoin:round;stroke-width:5.474670000000001px"/><path d="M217.244,358.633a10.425,10.425,0,0,1,5.439,1.214,4.466,4.466,0,0,1,1.949,4.106,4.738,4.738,0,0,1-.4,1.985,4.945,4.945,0,0,1-1.035,1.473,5.747,5.747,0,0,1-1.416,1.034,8.129,8.129,0,0,1-1.606.589L224,374.876a2.13,2.13,0,0,0,.683.672,3.287,3.287,0,0,0,.8.355v.73h-6v-.711c.351,0,.516-.106.516-.352a2.608,2.608,0,0,0-.584-1.232l-3.1-4.705h-5.834v5.635a3.167,3.167,0,0,1,.866.471c.152.092.321.143.135.143v.751h-5v-.751c.693,0,.911-.2,1-.614V359.977c-.09-.413-1-.614-1-.614v-.73Zm.66,8q3.972,0,3.973-2.674a1.925,1.925,0,0,0-.954-1.707,5.6,5.6,0,0,0-3.019-.619h-6.427v5Z" transform="translate(-39.631)" style="fill:#fff"/><path d="M251.018,354.851a16.331,16.331,0,0,1,4.579.682,14.127,14.127,0,0,1,4.261,2.029,11.03,11.03,0,0,1,3.149,3.417,10.3,10.3,0,0,1,0,9.767,10.91,10.91,0,0,1-3.149,3.417,13.383,13.383,0,0,1-4.261,1.971,17.693,17.693,0,0,1-9.167,0,13.368,13.368,0,0,1-4.262-1.971,10.781,10.781,0,0,1-3.141-3.417,10.317,10.317,0,0,1,0-9.767,10.9,10.9,0,0,1,3.141-3.417,14.11,14.11,0,0,1,4.262-2.029,16.344,16.344,0,0,1,4.588-.682m0,3.762a10.521,10.521,0,0,0-3.109.487,9.726,9.726,0,0,0-2.8,1.416,7.377,7.377,0,0,0-2.039,2.281,6.446,6.446,0,0,0,0,6.125,7.432,7.432,0,0,0,2.039,2.271,9.068,9.068,0,0,0,2.8,1.405,9.8,9.8,0,0,0,6.206,0,9.077,9.077,0,0,0,2.813-1.405,7.455,7.455,0,0,0,2.022-2.271,6.317,6.317,0,0,0,0-6.125,7.4,7.4,0,0,0-2.022-2.281,9.733,9.733,0,0,0-2.813-1.416,10.468,10.468,0,0,0-3.1-.487" transform="translate(-39.631)" style="fill:none;stroke:#fff;stroke-linecap:round;stroke-linejoin:round;stroke-width:5.474670000000001px"/><path d="M251.018,354.851a16.331,16.331,0,0,1,4.579.682,14.127,14.127,0,0,1,4.261,2.029,11.03,11.03,0,0,1,3.149,3.417,10.3,10.3,0,0,1,0,9.767,10.91,10.91,0,0,1-3.149,3.417,13.383,13.383,0,0,1-4.261,1.971,17.693,17.693,0,0,1-9.167,0,13.368,13.368,0,0,1-4.262-1.971,10.781,10.781,0,0,1-3.141-3.417,10.317,10.317,0,0,1,0-9.767,10.9,10.9,0,0,1,3.141-3.417,14.11,14.11,0,0,1,4.262-2.029,16.344,16.344,0,0,1,4.588-.682m0,3.762a10.521,10.521,0,0,0-3.109.487,9.726,9.726,0,0,0-2.8,1.416,7.377,7.377,0,0,0-2.039,2.281,6.446,6.446,0,0,0,0,6.125,7.432,7.432,0,0,0,2.039,2.271,9.068,9.068,0,0,0,2.8,1.405,9.8,9.8,0,0,0,6.206,0,9.077,9.077,0,0,0,2.813-1.405,7.455,7.455,0,0,0,2.022-2.271,6.317,6.317,0,0,0,0-6.125,7.4,7.4,0,0,0-2.022-2.281,9.733,9.733,0,0,0-2.813-1.416,10.468,10.468,0,0,0-3.1-.487" transform="translate(-39.631)" style="fill:#fff"/><path d="M274.517,375.268c.045.409.3.614,1,.614v.751h-6v-.751c.886,0,1.106-.2,1-.614V359.977c.106-.413-.114-.614-1-.614v-.73h6v.73a1.152,1.152,0,0,0-1,.614v6.684c.965-.764,1.984-1.548,3.013-2.312s1.968-1.5,2.8-2.149,1.517-1.2,2.065-1.664c.543-.436.825-.733.825-.832a.36.36,0,0,0-.248-.32.887.887,0,0,0-.453-.137v-.614h7v.73a3.585,3.585,0,0,0-2.084.934l-6.82,5.528,6.46,8.011c.327.419.68.835,1.068,1.255a2.253,2.253,0,0,0,1.376.791v.751h-6v-.73c.315,0,.464-.1.464-.252a.88.88,0,0,0-.193-.44,7.248,7.248,0,0,0-.743-.89l-5.231-6.145-3.3,2.544Z" transform="translate(-39.631)" style="fill:none;stroke:#fff;stroke-linecap:round;stroke-linejoin:round;stroke-width:5.474670000000001px"/><path d="M274.517,375.268c.045.409.3.614,1,.614v.751h-6v-.751c.886,0,1.106-.2,1-.614V359.977c.106-.413-.114-.614-1-.614v-.73h6v.73a1.152,1.152,0,0,0-1,.614v6.684c.965-.764,1.984-1.548,3.013-2.312s1.968-1.5,2.8-2.149,1.517-1.2,2.065-1.664c.543-.436.825-.733.825-.832a.36.36,0,0,0-.248-.32.887.887,0,0,0-.453-.137v-.614h7v.73a3.585,3.585,0,0,0-2.084.934l-6.82,5.528,6.46,8.011c.327.419.68.835,1.068,1.255a2.253,2.253,0,0,0,1.376.791v.751h-6v-.73c.315,0,.464-.1.464-.252a.88.88,0,0,0-.193-.44,7.248,7.248,0,0,0-.743-.89l-5.231-6.145-3.3,2.544Z" transform="translate(-39.631)" style="fill:#fff"/><path d="M295.53,375.882a2.737,2.737,0,0,0,1.209-.143c.169-.086.252-.246-.208-.471V359.977c.46-.229.377-.379.208-.488a2.864,2.864,0,0,0-1.209-.126v-.73h6v.73a1.66,1.66,0,0,0-1,.614v15.291a1.681,1.681,0,0,0,1,.614v.751h-6Z" transform="translate(-39.631)" style="fill:none;stroke:#fff;stroke-linecap:round;stroke-linejoin:round;stroke-width:5.474670000000001px"/><path d="M295.53,375.882a2.737,2.737,0,0,0,1.209-.143c.169-.086.252-.246-.208-.471V359.977c.46-.229.377-.379.208-.488a2.864,2.864,0,0,0-1.209-.126v-.73h6v.73a1.66,1.66,0,0,0-1,.614v15.291a1.681,1.681,0,0,0,1,.614v.751h-6Z" transform="translate(-39.631)" style="fill:#fff"/><path d="M309.539,375.882c.875,0,1.117-.2,1-.614V359.977c.116-.413-.126-.614-1-.614v-.73h7v.751c-.177.024-.275.085-.275.2,0,.136.291.5.865,1.1l9.416,10.4v-11.1a1.541,1.541,0,0,0-1-.614v-.73h5v.73a1.068,1.068,0,0,0-1,.614v15.291a1.074,1.074,0,0,0,1,.614v.751h-5v-.73c.2,0,.308-.078.308-.2,0-.1-.146-.3-.418-.58s-.6-.579-.962-.934l-10.935-10.8v11.887a5.709,5.709,0,0,0,1,.614v.751h-5Z" transform="translate(-39.631)" style="fill:none;stroke:#fff;stroke-linecap:round;stroke-linejoin:round;stroke-width:5.474670000000001px"/><path d="M309.539,375.882c.875,0,1.117-.2,1-.614V359.977c.116-.413-.126-.614-1-.614v-.73h7v.751c-.177.024-.275.085-.275.2,0,.136.291.5.865,1.1l9.416,10.4v-11.1a1.541,1.541,0,0,0-1-.614v-.73h5v.73a1.068,1.068,0,0,0-1,.614v15.291a1.074,1.074,0,0,0,1,.614v.751h-5v-.73c.2,0,.308-.078.308-.2,0-.1-.146-.3-.418-.58s-.6-.579-.962-.934l-10.935-10.8v11.887a5.709,5.709,0,0,0,1,.614v.751h-5Z" transform="translate(-39.631)" style="fill:#fff"/><path d="M335.556,375.9a1.374,1.374,0,0,0,.856-.463,3.847,3.847,0,0,0,.479-.734l6.455-13.286c.172-.379.312-.689.41-.918a1.926,1.926,0,0,0,.151-.682c0-.16-.043-.269-.115-.31s-.141-.075-.231-.126v-.751h5v.751a.96.96,0,0,1-.279.109c-.1.044-.137.136-.137.327a1.266,1.266,0,0,0,.191.607c.12.235.25.5.381.781l6.836,13.911a1.4,1.4,0,0,0,.46.532,1.533,1.533,0,0,0,.553.252v.73h-6V376a1.869,1.869,0,0,0,.922-.116.485.485,0,0,0,.237-.454,1.24,1.24,0,0,0-.085-.44c-.06-.15-.137-.317-.21-.521l-1.1-2.834h-8.758l-1.145,2.69a6.025,6.025,0,0,0-.268.59,1.441,1.441,0,0,0-.1.488c0,.218.068.355.2.385a1.4,1.4,0,0,0,.306.1v.751h-5Zm13.455-7.27-3.317-6.864-2.9,6.864Z" transform="translate(-39.631)" style="fill:none;stroke:#fff;stroke-linecap:round;stroke-linejoin:round;stroke-width:5.474670000000001px"/><path d="M335.556,375.9a1.374,1.374,0,0,0,.856-.463,3.847,3.847,0,0,0,.479-.734l6.455-13.286c.172-.379.312-.689.41-.918a1.926,1.926,0,0,0,.151-.682c0-.16-.043-.269-.115-.31s-.141-.075-.231-.126v-.751h5v.751a.96.96,0,0,1-.279.109c-.1.044-.137.136-.137.327a1.266,1.266,0,0,0,.191.607c.12.235.25.5.381.781l6.836,13.911a1.4,1.4,0,0,0,.46.532,1.533,1.533,0,0,0,.553.252v.73h-6V376a1.869,1.869,0,0,0,.922-.116.485.485,0,0,0,.237-.454,1.24,1.24,0,0,0-.085-.44c-.06-.15-.137-.317-.21-.521l-1.1-2.834h-8.758l-1.145,2.69a6.025,6.025,0,0,0-.268.59,1.441,1.441,0,0,0-.1.488c0,.218.068.355.2.385a1.4,1.4,0,0,0,.306.1v.751h-5Zm13.455-7.27-3.317-6.864-2.9,6.864Z" transform="translate(-39.631)" style="fill:#fff"/><path d="M363.574,359.385c-.356,0-.522.185-.522.574a2.007,2.007,0,0,0,.158.632c.1.277.24.649.416,1.1l3.532,9.945h.076l3.426-9.761c.133-.372.248-.734.379-1.079a2.647,2.647,0,0,0,.176-.834c0-.389-.208-.574-.637-.574v-.752h6v.751c-.489,0-.719.16-.719.487a2.483,2.483,0,0,0,.2.832c.133.372.264.716.4,1.054l3.547,9.852,3.747-9.927c.131-.4.247-.733.347-1.02a2.292,2.292,0,0,0,.131-.706c0-.388-.215-.572-.645-.572v-.751h5v.751c-.465,0-.869.5-1.218,1.514l-4.63,12.482c-.156.453-.322.866-.472,1.234a2.251,2.251,0,0,0-.246.758c0,.354.181.531.562.531v.73h-6V375.9a.612.612,0,0,0,.389-.145.855.855,0,0,0,.08-.423,8.259,8.259,0,0,0-.35-1.26c-.24-.695-.542-1.6-.908-2.691s-.78-2.32-1.226-3.645c-.428-1.35-.866-2.726-1.272-4.1h-.081a12.348,12.348,0,0,1-.421,1.35c-.23.636-.5,1.383-.819,2.233-.3.823-.629,1.707-.989,2.633s-.669,1.776-.962,2.565-.542,1.435-.733,1.979a4.489,4.489,0,0,0-.293.936.709.709,0,0,0,.127.458.634.634,0,0,0,.453.11v.736h-5v-.73a1.23,1.23,0,0,0,.275-.034c.072-.044.113-.126.113-.279a1.807,1.807,0,0,0-.146-.655c-.079-.242-.163-.447-.21-.59l-5.2-14.187a1.093,1.093,0,0,0-.837-.774v-.751h5Z" transform="translate(-39.631)" style="fill:none;stroke:#fff;stroke-linecap:round;stroke-linejoin:round;stroke-width:5.474670000000001px"/><path d="M363.574,359.385c-.356,0-.522.185-.522.574a2.007,2.007,0,0,0,.158.632c.1.277.24.649.416,1.1l3.532,9.945h.076l3.426-9.761c.133-.372.248-.734.379-1.079a2.647,2.647,0,0,0,.176-.834c0-.389-.208-.574-.637-.574v-.752h6v.751c-.489,0-.719.16-.719.487a2.483,2.483,0,0,0,.2.832c.133.372.264.716.4,1.054l3.547,9.852,3.747-9.927c.131-.4.247-.733.347-1.02a2.292,2.292,0,0,0,.131-.706c0-.388-.215-.572-.645-.572v-.751h5v.751c-.465,0-.869.5-1.218,1.514l-4.63,12.482c-.156.453-.322.866-.472,1.234a2.251,2.251,0,0,0-.246.758c0,.354.181.531.562.531v.73h-6V375.9a.612.612,0,0,0,.389-.145.855.855,0,0,0,.08-.423,8.259,8.259,0,0,0-.35-1.26c-.24-.695-.542-1.6-.908-2.691s-.78-2.32-1.226-3.645c-.428-1.35-.866-2.726-1.272-4.1h-.081a12.348,12.348,0,0,1-.421,1.35c-.23.636-.5,1.383-.819,2.233-.3.823-.629,1.707-.989,2.633s-.669,1.776-.962,2.565-.542,1.435-.733,1.979a4.489,4.489,0,0,0-.293.936.709.709,0,0,0,.127.458.634.634,0,0,0,.453.11v.736h-5v-.73a1.23,1.23,0,0,0,.275-.034c.072-.044.113-.126.113-.279a1.807,1.807,0,0,0-.146-.655c-.079-.242-.163-.447-.21-.59l-5.2-14.187a1.093,1.093,0,0,0-.837-.774v-.751h5Z" transform="translate(-39.631)" style="fill:#fff"/><path d="M389.59,375.9a1.387,1.387,0,0,0,.846-.463,3.6,3.6,0,0,0,.491-.734l6.454-13.286c.169-.379.312-.689.409-.918a1.768,1.768,0,0,0,.152-.682c0-.16-.036-.269-.107-.31a2.351,2.351,0,0,1-.24-.126v-.751h6v.751a1.013,1.013,0,0,1-.27.109c-.1.044-.146.136-.146.327a1.355,1.355,0,0,0,.181.607c.13.235.26.5.409.781l6.818,13.911a1.324,1.324,0,0,0,.467.532,1.557,1.557,0,0,0,.546.252v.73h-6V376a1,1,0,0,0,.49-.116.462.462,0,0,0,.229-.454,1.241,1.241,0,0,0-.075-.44c-.06-.15-.127-.317-.21-.521l-1.1-2.834h-8.765l-1.138,2.69c-.109.219-.2.423-.278.59a1.408,1.408,0,0,0-.092.488c0,.218.068.355.194.385a1.728,1.728,0,0,0,.743.1v.751h-6Zm14.026-7.27-3.31-6.864-2.912,6.864Z" transform="translate(-39.631)" style="fill:none;stroke:#fff;stroke-linecap:round;stroke-linejoin:round;stroke-width:5.474670000000001px"/><path d="M389.59,375.9a1.387,1.387,0,0,0,.846-.463,3.6,3.6,0,0,0,.491-.734l6.454-13.286c.169-.379.312-.689.409-.918a1.768,1.768,0,0,0,.152-.682c0-.16-.036-.269-.107-.31a2.351,2.351,0,0,1-.24-.126v-.751h6v.751a1.013,1.013,0,0,1-.27.109c-.1.044-.146.136-.146.327a1.355,1.355,0,0,0,.181.607c.13.235.26.5.409.781l6.818,13.911a1.324,1.324,0,0,0,.467.532,1.557,1.557,0,0,0,.546.252v.73h-6V376a1,1,0,0,0,.49-.116.462.462,0,0,0,.229-.454,1.241,1.241,0,0,0-.075-.44c-.06-.15-.127-.317-.21-.521l-1.1-2.834h-8.765l-1.138,2.69c-.109.219-.2.423-.278.59a1.408,1.408,0,0,0-.092.488c0,.218.068.355.194.385a1.728,1.728,0,0,0,.743.1v.751h-6Zm14.026-7.27-3.31-6.864-2.912,6.864Z" transform="translate(-39.631)" style="fill:#fff"/><path d="M159.9,408.48l-.817-.246a1.382,1.382,0,0,0,.083-.477,1.358,1.358,0,0,0-.758-1.112,7.235,7.235,0,0,0-1.919-.842,14.021,14.021,0,0,0-2.543-.512,23.709,23.709,0,0,0-2.611-.17,11.219,11.219,0,0,0-3,.43,7.82,7.82,0,0,0-2.658,1.323,6.818,6.818,0,0,0-1.887,2.346,7.729,7.729,0,0,0-.708,3.475,7.817,7.817,0,0,0,.708,3.458,6.7,6.7,0,0,0,1.887,2.356,7.7,7.7,0,0,0,2.658,1.323,10.327,10.327,0,0,0,3,.427,20.623,20.623,0,0,0,4.2-.385,12.631,12.631,0,0,0,2.9-.843v-3.4h-4.965a.952.952,0,0,0-.858.124,2.811,2.811,0,0,0-.371.876h-.811v-5h.811s.185.707.371.844a1.513,1.513,0,0,0,.858.156h9.968v.768a2.643,2.643,0,0,0-.748.28c-.143.1-.253.688-.253.688v4.621s.127.454.286.546c.162.075.715.276.715.276v.658s-1.986,1.136-3,1.549a19.666,19.666,0,0,1-3.015.961,17.429,17.429,0,0,1-3.071.426c-1.029.062-2.032.086-3.025.086a17.709,17.709,0,0,1-5.2-.716,11.325,11.325,0,0,1-4.034-2.118,9.6,9.6,0,0,1-2.6-3.434,11.044,11.044,0,0,1-.927-4.6,10.931,10.931,0,0,1,.927-4.611,9.6,9.6,0,0,1,2.6-3.458,11.688,11.688,0,0,1,4.034-2.206,17.209,17.209,0,0,1,5.2-.74,22.8,22.8,0,0,1,3.452.245c1.1.167,2.056.345,2.9.546.859.2,1.55.406,2.122.573a4.488,4.488,0,0,0,1.043.269.959.959,0,0,0,.573-.16,2.9,2.9,0,0,1,.4-.276l.49.276Z" transform="translate(-39.631)" style="fill:none;stroke:#fff;stroke-linecap:round;stroke-linejoin:round;stroke-width:5.474670000000001px"/><path d="M159.9,408.48l-.817-.246a1.382,1.382,0,0,0,.083-.477,1.358,1.358,0,0,0-.758-1.112,7.235,7.235,0,0,0-1.919-.842,14.021,14.021,0,0,0-2.543-.512,23.709,23.709,0,0,0-2.611-.17,11.219,11.219,0,0,0-3,.43,7.82,7.82,0,0,0-2.658,1.323,6.818,6.818,0,0,0-1.887,2.346,7.729,7.729,0,0,0-.708,3.475,7.817,7.817,0,0,0,.708,3.458,6.7,6.7,0,0,0,1.887,2.356,7.7,7.7,0,0,0,2.658,1.323,10.327,10.327,0,0,0,3,.427,20.623,20.623,0,0,0,4.2-.385,12.631,12.631,0,0,0,2.9-.843v-3.4h-4.965a.952.952,0,0,0-.858.124,2.811,2.811,0,0,0-.371.876h-.811v-5h.811s.185.707.371.844a1.513,1.513,0,0,0,.858.156h9.968v.768a2.643,2.643,0,0,0-.748.28c-.143.1-.253.688-.253.688v4.621s.127.454.286.546c.162.075.715.276.715.276v.658s-1.986,1.136-3,1.549a19.666,19.666,0,0,1-3.015.961,17.429,17.429,0,0,1-3.071.426c-1.029.062-2.032.086-3.025.086a17.709,17.709,0,0,1-5.2-.716,11.325,11.325,0,0,1-4.034-2.118,9.6,9.6,0,0,1-2.6-3.434,11.044,11.044,0,0,1-.927-4.6,10.931,10.931,0,0,1,.927-4.611,9.6,9.6,0,0,1,2.6-3.458,11.688,11.688,0,0,1,4.034-2.206,17.209,17.209,0,0,1,5.2-.74,22.8,22.8,0,0,1,3.452.245c1.1.167,2.056.345,2.9.546.859.2,1.55.406,2.122.573a4.488,4.488,0,0,0,1.043.269.959.959,0,0,0,.573-.16,2.9,2.9,0,0,1,.4-.276l.49.276Z" transform="translate(-39.631)" style="fill:#fff"/><path d="M171.451,422.883a1.321,1.321,0,0,0,.847-.464,3.985,3.985,0,0,0,.5-.723l6.454-13.287c.169-.385.312-.689.4-.924a1.575,1.575,0,0,0,.153-.675c0-.167-.028-.276-.108-.317a1.24,1.24,0,0,1-.241-.137v-.723h6v.723a1.018,1.018,0,0,1-.279.127c-.093.023-.137.126-.137.327a1.41,1.41,0,0,0,.191.6c.12.218.26.5.4.8l6.827,13.911a1.412,1.412,0,0,0,.46.522,2.078,2.078,0,0,0,.544.242v.75h-6v-.871a1.085,1.085,0,0,0,.549-.13.464.464,0,0,0,.227-.443,1.117,1.117,0,0,0-.085-.44c-.057-.15-.116-.327-.2-.556l-1.1-2.56h-8.764l-1.145,2.451a5.271,5.271,0,0,0-.272.59,1.474,1.474,0,0,0-.1.471c0,.218.066.354.2.412a1.836,1.836,0,0,0,.685.075v1h-6Zm14.092-7.25-3.325-6.868-2.906,6.868Z" transform="translate(-39.631)" style="fill:none;stroke:#fff;stroke-linecap:round;stroke-linejoin:round;stroke-width:5.474670000000001px"/><path d="M171.451,422.883a1.321,1.321,0,0,0,.847-.464,3.985,3.985,0,0,0,.5-.723l6.454-13.287c.169-.385.312-.689.4-.924a1.575,1.575,0,0,0,.153-.675c0-.167-.028-.276-.108-.317a1.24,1.24,0,0,1-.241-.137v-.723h6v.723a1.018,1.018,0,0,1-.279.127c-.093.023-.137.126-.137.327a1.41,1.41,0,0,0,.191.6c.12.218.26.5.4.8l6.827,13.911a1.412,1.412,0,0,0,.46.522,2.078,2.078,0,0,0,.544.242v.75h-6v-.871a1.085,1.085,0,0,0,.549-.13.464.464,0,0,0,.227-.443,1.117,1.117,0,0,0-.085-.44c-.057-.15-.116-.327-.2-.556l-1.1-2.56h-8.764l-1.145,2.451a5.271,5.271,0,0,0-.272.59,1.474,1.474,0,0,0-.1.471c0,.218.066.354.2.412a1.836,1.836,0,0,0,.685.075v1h-6Zm14.092-7.25-3.325-6.868-2.906,6.868Z" transform="translate(-39.631)" style="fill:#fff"/><path d="M203.471,422.632c.782,0,.917-.058,1.06-.133.133-.092-.059-.48-.059-.48V408.633H199.4a.424.424,0,0,0-.606-.061c-.193.1-.285.287-.285,1.061h-1.042v-5h.747a.921.921,0,0,0,.287.787,1.042,1.042,0,0,0,.611.213h14.72a1.015,1.015,0,0,0,.611-.213.926.926,0,0,0,.3-.787h.739v4h-.593c0,.226-.1.041-.293-.061-.186-.119-.606,1.061-.606,1.061h-5.512v12.386a.936.936,0,0,0,1,.613v1h-6Z" transform="translate(-39.631)" style="fill:none;stroke:#fff;stroke-linecap:round;stroke-linejoin:round;stroke-width:5.474670000000001px"/><path d="M203.471,422.632c.782,0,.917-.058,1.06-.133.133-.092-.059-.48-.059-.48V408.633H199.4a.424.424,0,0,0-.606-.061c-.193.1-.285.287-.285,1.061h-1.042v-5h.747a.921.921,0,0,0,.287.787,1.042,1.042,0,0,0,.611.213h14.72a1.015,1.015,0,0,0,.611-.213.926.926,0,0,0,.3-.787h.739v4h-.593c0,.226-.1.041-.293-.061-.186-.119-.606,1.061-.606,1.061h-5.512v12.386a.936.936,0,0,0,1,.613v1h-6Z" transform="translate(-39.631)" style="fill:#fff"/><path d="M241,409.633c0-.976-.423-1.238-1.264-1H229.488v4h6.56c.461-.146.807-.173,1.025-.248.219-.058.321-.246.321-.752h.1v5h-.184c.085-.756-.017-.934-.321-1.009a2.9,2.9,0,0,0-1.271.009h-6.229v5h10.737a4,4,0,0,1,.824-.5,1.258,1.258,0,0,0,.32-.5H242.5v3h-1.127s-.112.8-.32.773a1.082,1.082,0,0,0-.824.227H225.486v-1c-.151,0-.015-.058.127-.133a1.674,1.674,0,0,1,.873-.48v-15.3a1.682,1.682,0,0,1-.873-.477c-.142-.085-.127-.137-.127-.137v-.473h14.249c.841-.25,1.264-.512,1.264-1h.5v5Z" transform="translate(-39.631)" style="fill:none;stroke:#fff;stroke-linecap:round;stroke-linejoin:round;stroke-width:5.474670000000001px"/><path d="M241,409.633c0-.976-.423-1.238-1.264-1H229.488v4h6.56c.461-.146.807-.173,1.025-.248.219-.058.321-.246.321-.752h.1v5h-.184c.085-.756-.017-.934-.321-1.009a2.9,2.9,0,0,0-1.271.009h-6.229v5h10.737a4,4,0,0,1,.824-.5,1.258,1.258,0,0,0,.32-.5H242.5v3h-1.127s-.112.8-.32.773a1.082,1.082,0,0,0-.824.227H225.486v-1c-.151,0-.015-.058.127-.133a1.674,1.674,0,0,1,.873-.48v-15.3a1.682,1.682,0,0,1-.873-.477c-.142-.085-.127-.137-.127-.137v-.473h14.249c.841-.25,1.264-.512,1.264-1h.5v5Z" transform="translate(-39.631)" style="fill:#fff"/><path d="M254.5,406.359c-.358,0-.531.2-.531.581a2.281,2.281,0,0,0,.166.643c.108.281.232.64.4,1.081l3.55,9.969h.081l3.425-9.767c.142-.39.258-.742.382-1.1a2.427,2.427,0,0,0,.183-.828c0-.38-.225-.581-.648-.581v-.726h6v.723c-.471,0-.721.171-.721.488a2.382,2.382,0,0,0,.206.842c.134.372.265.723.4,1.044l3.546,9.862,3.742-9.937c.134-.389.248-.716.349-1.01a2.831,2.831,0,0,0,.139-.709c0-.378-.223-.58-.654-.58v-.723h5v.723c-.464,0-.862.5-1.21,1.515l-4.644,12.471a12.936,12.936,0,0,1-.472,1.255,2.094,2.094,0,0,0-.249.764c0,.355.19.522.571.522v.75h-6v-.756a.61.61,0,0,0,.4-.134.817.817,0,0,0,.081-.433,8.714,8.714,0,0,0-.35-1.247q-.358-1.058-.91-2.7c-.382-1.076-.78-2.289-1.227-3.647-.43-1.347-.869-2.687-1.276-4.079h-.078a8.96,8.96,0,0,1-.432,1.33c-.223.664-.5,1.4-.811,2.241s-.63,1.715-.99,2.636-.669,1.773-.966,2.553-.541,1.45-.74,1.976a5.558,5.558,0,0,0-.287.941.775.775,0,0,0,.113.457.743.743,0,0,0,.47.11v.756h-5v-.75a.573.573,0,0,0,.276-.041c.081-.027.122-.109.122-.293a1.9,1.9,0,0,0-.146-.624c-.081-.253-.162-.464-.211-.59l-5.215-14.211a1.1,1.1,0,0,0-.83-.768v-.723h5Z" transform="translate(-39.631)" style="fill:none;stroke:#fff;stroke-linecap:round;stroke-linejoin:round;stroke-width:5.474670000000001px"/><path d="M254.5,406.359c-.358,0-.531.2-.531.581a2.281,2.281,0,0,0,.166.643c.108.281.232.64.4,1.081l3.55,9.969h.081l3.425-9.767c.142-.39.258-.742.382-1.1a2.427,2.427,0,0,0,.183-.828c0-.38-.225-.581-.648-.581v-.726h6v.723c-.471,0-.721.171-.721.488a2.382,2.382,0,0,0,.206.842c.134.372.265.723.4,1.044l3.546,9.862,3.742-9.937c.134-.389.248-.716.349-1.01a2.831,2.831,0,0,0,.139-.709c0-.378-.223-.58-.654-.58v-.723h5v.723c-.464,0-.862.5-1.21,1.515l-4.644,12.471a12.936,12.936,0,0,1-.472,1.255,2.094,2.094,0,0,0-.249.764c0,.355.19.522.571.522v.75h-6v-.756a.61.61,0,0,0,.4-.134.817.817,0,0,0,.081-.433,8.714,8.714,0,0,0-.35-1.247q-.358-1.058-.91-2.7c-.382-1.076-.78-2.289-1.227-3.647-.43-1.347-.869-2.687-1.276-4.079h-.078a8.96,8.96,0,0,1-.432,1.33c-.223.664-.5,1.4-.811,2.241s-.63,1.715-.99,2.636-.669,1.773-.966,2.553-.541,1.45-.74,1.976a5.558,5.558,0,0,0-.287.941.775.775,0,0,0,.113.457.743.743,0,0,0,.47.11v.756h-5v-.75a.573.573,0,0,0,.276-.041c.081-.027.122-.109.122-.293a1.9,1.9,0,0,0-.146-.624c-.081-.253-.162-.464-.211-.59l-5.215-14.211a1.1,1.1,0,0,0-.83-.768v-.723h5Z" transform="translate(-39.631)" style="fill:#fff"/><path d="M283.523,422.883a1.366,1.366,0,0,0,.838-.464,4.036,4.036,0,0,0,.5-.723l6.453-13.287c.179-.385.32-.689.41-.924a1.754,1.754,0,0,0,.161-.675c0-.167-.045-.276-.119-.317a1.566,1.566,0,0,1-.238-.137v-.723h6v.723a1.294,1.294,0,0,1-.286.127c-.09.023-.141.126-.141.327a1.492,1.492,0,0,0,.185.6c.128.218.258.5.406.8l6.836,13.911a1.432,1.432,0,0,0,.461.522,2.07,2.07,0,0,0,.545.242v.75h-6v-.871c-.066,0,.079-.051.227-.13a.46.46,0,0,0,.229-.443,1.173,1.173,0,0,0-.084-.44c-.051-.15-.126-.327-.2-.556l-1.112-2.56h-8.756l-1.145,2.451a5.271,5.271,0,0,0-.272.59,1.48,1.48,0,0,0-.1.471.409.409,0,0,0,.2.412,2.98,2.98,0,0,0,1,.075v1h-6Zm13.762-7.25-3.326-6.868-2.895,6.868Z" transform="translate(-39.631)" style="fill:none;stroke:#fff;stroke-linecap:round;stroke-linejoin:round;stroke-width:5.474670000000001px"/><path d="M283.523,422.883a1.366,1.366,0,0,0,.838-.464,4.036,4.036,0,0,0,.5-.723l6.453-13.287c.179-.385.32-.689.41-.924a1.754,1.754,0,0,0,.161-.675c0-.167-.045-.276-.119-.317a1.566,1.566,0,0,1-.238-.137v-.723h6v.723a1.294,1.294,0,0,1-.286.127c-.09.023-.141.126-.141.327a1.492,1.492,0,0,0,.185.6c.128.218.258.5.406.8l6.836,13.911a1.432,1.432,0,0,0,.461.522,2.07,2.07,0,0,0,.545.242v.75h-6v-.871c-.066,0,.079-.051.227-.13a.46.46,0,0,0,.229-.443,1.173,1.173,0,0,0-.084-.44c-.051-.15-.126-.327-.2-.556l-1.112-2.56h-8.756l-1.145,2.451a5.271,5.271,0,0,0-.272.59,1.48,1.48,0,0,0-.1.471.409.409,0,0,0,.2.412,2.98,2.98,0,0,0,1,.075v1h-6Zm13.762-7.25-3.326-6.868-2.895,6.868Z" transform="translate(-39.631)" style="fill:#fff"/><path d="M311.94,407.055a1.534,1.534,0,0,0-.655-.528,1.777,1.777,0,0,0-.745-.171v-.723h6v.723a1.125,1.125,0,0,0-.472.137.479.479,0,0,0-.25.4.659.659,0,0,0,.171.437c.113.153.236.313.385.5l4.275,5.395,3.767-5.064c.259-.361.441-.631.565-.8a.842.842,0,0,0,.19-.522c0-.208-.06-.351-.19-.413a2.168,2.168,0,0,0-.436-.075v-.723h6v.723a1.6,1.6,0,0,0-1.046.546,13.1,13.1,0,0,0-1,1.136l-5.963,8.095v5.886s.093.613,1,.613v1h-6v-1a1.249,1.249,0,0,0,1-.613v-6.042Z" transform="translate(-39.631)" style="fill:none;stroke:#fff;stroke-linecap:round;stroke-linejoin:round;stroke-width:5.474670000000001px"/><path d="M311.94,407.055a1.534,1.534,0,0,0-.655-.528,1.777,1.777,0,0,0-.745-.171v-.723h6v.723a1.125,1.125,0,0,0-.472.137.479.479,0,0,0-.25.4.659.659,0,0,0,.171.437c.113.153.236.313.385.5l4.275,5.395,3.767-5.064c.259-.361.441-.631.565-.8a.842.842,0,0,0,.19-.522c0-.208-.06-.351-.19-.413a2.168,2.168,0,0,0-.436-.075v-.723h6v.723a1.6,1.6,0,0,0-1.046.546,13.1,13.1,0,0,0-1,1.136l-5.963,8.095v5.886s.093.613,1,.613v1h-6v-1a1.249,1.249,0,0,0,1-.613v-6.042Z" transform="translate(-39.631)" style="fill:#fff"/><path d="M42.869,376.133v-.251s1.181-.253,1-.733V356.577c.18-.5-.3-.747-1-.747v-.7h13.3s4.4.458,5.8,1.41c1.415.968,2.123,2.625,2.123,4.931q0,3.5-2.123,4.924a12.44,12.44,0,0,1-5.8,1.735H48.873v7.016c-.445.48,1,.733,1,.733v.251Zm13.828-12a4.027,4.027,0,0,0,2.072-.514,2.706,2.706,0,0,0,0-3.972,4.037,4.037,0,0,0-2.072-.514H48.873v5Z" transform="translate(-39.631)" style="fill:#231815"/><path d="M79.415,358.37a13.113,13.113,0,0,1,3.975.58,9.052,9.052,0,0,1,3.25,1.716,7.92,7.92,0,0,1,2.188,2.888,10.511,10.511,0,0,1,0,8.126,7.924,7.924,0,0,1-2.188,2.9,8.378,8.378,0,0,1-3.25,1.64,15.457,15.457,0,0,1-7.966,0,8.354,8.354,0,0,1-3.251-1.64,8.147,8.147,0,0,1-2.2-2.9,10.619,10.619,0,0,1,0-8.126,8.144,8.144,0,0,1,2.2-2.888,9.024,9.024,0,0,1,3.251-1.716,13.116,13.116,0,0,1,3.991-.58m0,3.029a6.928,6.928,0,0,0-2.409.429,6.467,6.467,0,0,0-2.1,1.228A5.992,5.992,0,0,0,73.419,365a6.439,6.439,0,0,0,0,5.235,6.052,6.052,0,0,0,1.491,1.943,6.85,6.85,0,0,0,2.1,1.238,7.064,7.064,0,0,0,4.8,0,7.192,7.192,0,0,0,2.1-1.238,5.89,5.89,0,0,0,1.482-1.943,6.439,6.439,0,0,0,0-5.235,5.833,5.833,0,0,0-1.482-1.944,6.771,6.771,0,0,0-2.1-1.228,6.894,6.894,0,0,0-2.39-.429" transform="translate(-39.631)" style="fill:#231815"/><path d="M100.906,358.133v1.23s-1.333.2-1,.614v13.156h10.058c.3.45.555.382.758.232s.311.768.311.768h.881v3h-.881s-.1-.443-.311-.46c-.2-.044-.454-.061-.758.46H94.9v-1.251c.645,0,.965-.2,1-.614V359.977c-.036-.413-1-.614-1-.614v-1.23Z" transform="translate(-39.631)" style="fill:#231815"/><path d="M132.9,361.133c0,.77-.4.528-1.2,1H122.92v4h5.315a2.028,2.028,0,0,1,.97-.509.465.465,0,0,0,.31-.491h.41v3h-.5c.085.973-.024.806-.312.731a1.308,1.308,0,0,0-1.187.269h-6.012v4H132.16c.311.45.57.382.774.232s.3.768.3.768h.691v3h-.691s-.1-.443-.3-.46c-.2-.044-.463-.061-.774.46H117.917v-1.251a.69.69,0,0,0,.508-.143c.126-.086.193-.246.493-.471V359.977a4.11,4.11,0,0,1-.493-.488,1.494,1.494,0,0,0-.508-.126v-1.23H131.7c.792.48,1.2.237,1.2,1h1.028v2Z" transform="translate(-39.631)" style="fill:#231815"/><path d="M142.1,370.371c0,.1-.016.208-.026.334s-.026.252-.026.4a1.374,1.374,0,0,0,.741,1.118,6.734,6.734,0,0,0,1.751.853,16.106,16.106,0,0,0,2.039.562,8.78,8.78,0,0,0,1.6.2,11.225,11.225,0,0,0,1.311-.086,7.358,7.358,0,0,0,1.568-.334,4.211,4.211,0,0,0,1.314-.74,1.613,1.613,0,0,0,.529-1.255,1.363,1.363,0,0,0-.935-1.3,10.431,10.431,0,0,0-2.374-.641q-1.414-.216-3.074-.447a14.77,14.77,0,0,1-3.072-.747,6.236,6.236,0,0,1-2.376-1.467,3.713,3.713,0,0,1-.943-2.717,4.992,4.992,0,0,1,2.038-4.164,9.264,9.264,0,0,1,5.743-1.566,13.826,13.826,0,0,1,5.272.993c.589.245,1.059.464,1.447.672a1.9,1.9,0,0,0,.817.3.929.929,0,0,0,.463-.1,3.525,3.525,0,0,1,.387-.239l.421.464-1.92,3.847-.7-.263c-.017-.15-.043-.317-.069-.487a.872.872,0,0,0-.354-.488,6.17,6.17,0,0,0-2.391-1.187,12.517,12.517,0,0,0-3.6-.487,9.059,9.059,0,0,0-1.467.109,4.04,4.04,0,0,0-1.227.337,2.484,2.484,0,0,0-.844.631,1.459,1.459,0,0,0-.3.976,1.3,1.3,0,0,0,.934,1.278,9.785,9.785,0,0,0,2.367.614c.952.154,1.969.314,3.081.454a14.578,14.578,0,0,1,3.065.75,5.9,5.9,0,0,1,2.375,1.565,3.959,3.959,0,0,1,.943,2.81,4.978,4.978,0,0,1-.827,2.964,6.165,6.165,0,0,1-2.052,1.79,7.767,7.767,0,0,1-2.721.86,17.983,17.983,0,0,1-2.786.2,13.526,13.526,0,0,1-2.594-.259,23.657,23.657,0,0,1-2.35-.614c-.706-.236-1.3-.447-1.794-.648a3.725,3.725,0,0,0-.883-.321.608.608,0,0,0-.464.253l-.536-.413,1.766-4.576Z" transform="translate(-39.631)" style="fill:#231815"/><path d="M167.949,375.882a.665.665,0,0,0,.382-.143c.136-.086.618-.471.618-.471V361.133h-5.424a1.138,1.138,0,0,1-.582.689.535.535,0,0,0-.269.311h-.729v-5h.7a.933.933,0,0,0,.272.794.955.955,0,0,0,.591.206H177.4a.951.951,0,0,0,.581-.206.937.937,0,0,0,.282-.794h.691v4h-.882c0,.965-.093.787-.278.689-.178-.13-.572.311-.572.311h-5.273v13.135a1.066,1.066,0,0,0,1,.614v1.251h-5Z" transform="translate(-39.631)" style="fill:#231815"/><path d="M180.957,376.363a1.161,1.161,0,0,0,.743-.49,5.2,5.2,0,0,0,.432-.774l5.638-14.025c.16-.4.274-.727.358-.968a2.1,2.1,0,0,0,.134-.72.458.458,0,0,0-.086-.327c-.065-.037-.132-.08-.214-.134v-.792h6v.792a.656.656,0,0,1-.242.116c-.08.046-.121.143-.121.345a1.747,1.747,0,0,0,.162.641c.113.248.236.533.357.824l5.961,14.684a1.541,1.541,0,0,0,.412.562,1.3,1.3,0,0,0,.476.266v.77h-5V376a1.075,1.075,0,0,0,.555-.116.5.5,0,0,0,.2-.454,1.222,1.222,0,0,0-.067-.44c-.049-.15-.119-.317-.194-.521l-1.036-2.334h-8.234l-1.087,2.19c-.109.219-.176.423-.244.59a1.414,1.414,0,0,0-.1.488c0,.218.067.355.193.385.126.069.311.1.006.1v1.251h-5Zm13.241-7.23-3.124-6.864-2.736,6.864Z" transform="translate(-39.631)" style="fill:#231815"/><path d="M217.744,358.133a10.431,10.431,0,0,1,5.44,1.214,4.467,4.467,0,0,1,1.948,4.106,4.738,4.738,0,0,1-.4,1.985,4.945,4.945,0,0,1-1.035,1.473,5.747,5.747,0,0,1-1.416,1.034,8.129,8.129,0,0,1-1.606.589l3.825,5.842a2.123,2.123,0,0,0,.684.672,3.264,3.264,0,0,0,.8.355v.73h-6v-.711c.351,0,.516-.106.516-.352a2.608,2.608,0,0,0-.584-1.232l-3.1-4.705h-5.835v6.135a.938.938,0,0,0,.366.471,1.123,1.123,0,0,0,.635.143v.251h-5v-.251c.192,0,.41-.2,1-.614V359.977a8.387,8.387,0,0,0-1-.614v-1.23Zm-.34,8q3.972,0,3.973-2.674a1.924,1.924,0,0,0-.955-1.707,5.591,5.591,0,0,0-3.018-.619h-6.428v5Z" transform="translate(-39.631)" style="fill:#231815"/><path d="M251.018,354.851a16.331,16.331,0,0,1,4.579.682,14.127,14.127,0,0,1,4.261,2.029,11.03,11.03,0,0,1,3.149,3.417,10.3,10.3,0,0,1,0,9.767,10.91,10.91,0,0,1-3.149,3.417,13.383,13.383,0,0,1-4.261,1.971,17.693,17.693,0,0,1-9.167,0,13.368,13.368,0,0,1-4.262-1.971,10.781,10.781,0,0,1-3.141-3.417,10.317,10.317,0,0,1,0-9.767,10.9,10.9,0,0,1,3.141-3.417,14.11,14.11,0,0,1,4.262-2.029,16.344,16.344,0,0,1,4.588-.682m0,3.762a10.521,10.521,0,0,0-3.109.487,9.726,9.726,0,0,0-2.8,1.416,7.377,7.377,0,0,0-2.039,2.281,6.446,6.446,0,0,0,0,6.125,7.432,7.432,0,0,0,2.039,2.271,9.068,9.068,0,0,0,2.8,1.405,9.8,9.8,0,0,0,6.206,0,9.077,9.077,0,0,0,2.813-1.405,7.455,7.455,0,0,0,2.022-2.271,6.317,6.317,0,0,0,0-6.125,7.4,7.4,0,0,0-2.022-2.281,9.733,9.733,0,0,0-2.813-1.416,10.468,10.468,0,0,0-3.1-.487" transform="translate(-39.631)" style="fill:#231815"/><path d="M274.016,375.268c.546.409.8.614,1,.614v.251h-5v-.251c.386,0,.606-.2,1-.614V359.977c-.395-.413-.615-.614-1-.614v-1.23h4v1.23a1.008,1.008,0,0,1,1,.614v6.184c.844-.764,1.736-1.548,2.637-2.312s1.721-1.5,2.453-2.149,1.326-1.2,1.806-1.664c.475-.436.722-.733.722-.832a.358.358,0,0,0-.217-.32.707.707,0,0,0-.4-.137v-.614h7v1.23a4.448,4.448,0,0,0-1.584.934l-6.82,5.528,6.46,8.011c.327.419.68.835,1.068,1.255a2.44,2.44,0,0,0,1.877.791v.251h-7v-.73c.316,0,.464-.1.464-.252a.871.871,0,0,0-.193-.44,7.214,7.214,0,0,0-.742-.89l-5.231-6.145-3.3,2.544Z" transform="translate(-39.631)" style="fill:#231815"/><path d="M296.031,375.882a1.635,1.635,0,0,0,.708-.143.592.592,0,0,0,.292-.471V359.977a.657.657,0,0,0-.292-.488,1.643,1.643,0,0,0-.708-.126v-1.23h6v1.23c-.731,0-1.118.2-1,.614v15.291c-.118.409.269.614,1,.614v.251h-6Z" transform="translate(-39.631)" style="fill:#231815"/><path d="M310.039,375.882c.375,0,.617-.2,1-.614V359.977c-.384-.413-.626-.614-1-.614v-1.23h6v1.23c-.29.024-.393.085-.393.2,0,.137.3.5.9,1.1l8.5,10.394V359.977s1.043-.614,1-.614v-1.23h5v1.23c-.987,0-1.238.2-1,.614v15.291c-.237.409.014.614,1,.614v.251h-6v-.73c.184,0,.282-.078.282-.2,0-.1-.134-.3-.383-.58s-.55-.579-.882-.934l-10.024-10.8v12.387a1.255,1.255,0,0,0,1,.614v.251h-5Z" transform="translate(-39.631)" style="fill:#231815"/><path d="M335.055,376.363a1.354,1.354,0,0,0,.857-.49,4.049,4.049,0,0,0,.479-.774l6.455-14.025c.171-.4.312-.727.409-.968a2.133,2.133,0,0,0,.152-.72c0-.169-.044-.284-.116-.327s-.14-.08-.23-.134v-.792h6v.792a.924.924,0,0,1-.279.116c-.1.046-.137.143-.137.345a1.386,1.386,0,0,0,.192.641c.119.248.249.533.381.824l6.835,14.684a1.468,1.468,0,0,0,.46.562,1.5,1.5,0,0,0,.553.266v.77h-6V376a.957.957,0,0,0,.421-.116.485.485,0,0,0,.237-.454,1.24,1.24,0,0,0-.085-.44c-.06-.15-.137-.317-.21-.521l-1.1-2.334h-8.758l-1.145,2.19a6.025,6.025,0,0,0-.268.59,1.441,1.441,0,0,0-.1.488c0,.218.068.355.2.385a1.827,1.827,0,0,0,.806.1v1.251h-6Zm13.956-7.23-3.317-6.864-2.9,6.864Z" transform="translate(-39.631)" style="fill:#231815"/><path d="M363.073,358.885c-.355,0-.521.185-.521.574a2.027,2.027,0,0,0,.157.632c.1.277.24.649.416,1.1l3.533,9.945h.075l3.427-9.761c.132-.372.248-.734.379-1.079a2.675,2.675,0,0,0,.176-.834c0-.389-.208-.574-.637-.574v-.752h6v.751c-.489,0-.719.16-.719.487a2.458,2.458,0,0,0,.2.832c.133.372.264.716.4,1.054l3.547,9.852,3.746-9.927c.131-.4.247-.733.348-1.02a2.292,2.292,0,0,0,.131-.706c0-.388-.215-.572-.645-.572v-.751h6v.792c-.465,0-.869.526-1.218,1.6l-4.63,13.175c-.156.479-.322.914-.471,1.3a2.464,2.464,0,0,0-.247.8.494.494,0,0,0,.562.562v.77h-6V376.4a.609.609,0,0,0,.389-.145.844.844,0,0,0,.08-.423,8.324,8.324,0,0,0-.349-1.26c-.241-.695-.542-1.6-.909-2.691s-.78-2.32-1.225-3.645c-.429-1.35-.866-2.726-1.273-4.1h-.08a12.584,12.584,0,0,1-.421,1.35c-.231.636-.5,1.383-.82,2.233-.3.823-.629,1.707-.988,2.633s-.67,1.776-.963,2.565-.542,1.435-.732,1.979a4.525,4.525,0,0,0-.294.936.709.709,0,0,0,.127.458.635.635,0,0,0,.454.11v.736h-6v-.77a1.206,1.206,0,0,0,.274-.036c.073-.047.114-.133.114-.3a1.992,1.992,0,0,0-.146-.691c-.079-.256-.163-.472-.211-.623l-5.2-14.975a1.121,1.121,0,0,0-.837-.818v-.792h5Z" transform="translate(-39.631)" style="fill:#231815"/><path d="M390.091,376.363a1.37,1.37,0,0,0,.846-.49,3.831,3.831,0,0,0,.491-.774l6.453-14.025c.17-.4.312-.727.41-.968a1.975,1.975,0,0,0,.151-.72c0-.169-.036-.284-.106-.327a2.3,2.3,0,0,1-.24-.134v-.792h5v.792a1,1,0,0,1-.271.116c-.1.046-.145.143-.145.345a1.5,1.5,0,0,0,.181.641c.13.248.259.533.409.824l6.818,14.684a1.386,1.386,0,0,0,.467.562,1.515,1.515,0,0,0,.546.266v.77h-6V376c.7,0,.849-.041.99-.116a.462.462,0,0,0,.229-.454,1.241,1.241,0,0,0-.075-.44c-.06-.15-.127-.317-.21-.521l-1.1-2.334h-8.765l-1.138,2.19c-.109.219-.2.423-.278.59a1.408,1.408,0,0,0-.092.488c0,.218.068.355.194.385.142.069.335.1.243.1v1.251h-5Zm13.525-7.23-3.31-6.864-2.912,6.864Z" transform="translate(-39.631)" style="fill:#231815"/><path d="M159.9,408.48l-.817-.246a1.382,1.382,0,0,0,.083-.477,1.358,1.358,0,0,0-.758-1.112,7.235,7.235,0,0,0-1.919-.842,14.021,14.021,0,0,0-2.543-.512,23.709,23.709,0,0,0-2.611-.17,11.219,11.219,0,0,0-3,.43,7.82,7.82,0,0,0-2.658,1.323,6.818,6.818,0,0,0-1.887,2.346,7.729,7.729,0,0,0-.708,3.475,7.817,7.817,0,0,0,.708,3.458,6.7,6.7,0,0,0,1.887,2.356,7.7,7.7,0,0,0,2.658,1.323,10.327,10.327,0,0,0,3,.427,20.623,20.623,0,0,0,4.2-.385c1.254-.243,2.307-.546,3.4-.843v-2.9h-5.465c-.378-.611-.666-.515-.858-.376a4.975,4.975,0,0,0-.371,1.376h-.31v-5h.31a2.907,2.907,0,0,0,.371.344,2.109,2.109,0,0,1,.858.656h10.468v.268a2.818,2.818,0,0,0-1.248.28c-.143.1-.753.688-.753.688v4.621s.627.454.786.546a.461.461,0,0,1,.215.276v.658a14.679,14.679,0,0,1-2.5,1.549,19.666,19.666,0,0,1-3.015.961,17.429,17.429,0,0,1-3.071.426c-1.029.062-2.032.086-3.025.086a17.709,17.709,0,0,1-5.2-.716,11.325,11.325,0,0,1-4.034-2.118,9.6,9.6,0,0,1-2.6-3.434,11.044,11.044,0,0,1-.927-4.6,10.931,10.931,0,0,1,.927-4.611,9.6,9.6,0,0,1,2.6-3.458,11.688,11.688,0,0,1,4.034-2.206,17.209,17.209,0,0,1,5.2-.74,22.8,22.8,0,0,1,3.452.245c1.1.167,2.056.345,2.9.546.859.2,1.55.406,2.122.573a4.488,4.488,0,0,0,1.043.269.959.959,0,0,0,.573-.16,2.9,2.9,0,0,1,.4-.276l.49.276Z" transform="translate(-39.631)" style="fill:#231815"/><path d="M171.951,422.383a1.321,1.321,0,0,0,.848-.464,4.026,4.026,0,0,0,.5-.723l6.455-13.287c.168-.385.312-.689.4-.924a1.563,1.563,0,0,0,.154-.675c0-.167-.028-.276-.109-.317a1.27,1.27,0,0,1-.241-.137v-.723h6v.723a1.018,1.018,0,0,1-.279.127c-.093.023-.137.126-.137.327a1.414,1.414,0,0,0,.192.6c.119.218.259.5.4.8l6.827,13.911a1.412,1.412,0,0,0,.46.522,2.078,2.078,0,0,0,.544.242v.75h-6v-.371c-.247,0-.112-.051.048-.13a.464.464,0,0,0,.227-.443,1.117,1.117,0,0,0-.085-.44c-.057-.15-.116-.327-.2-.556l-1.1-3.06h-8.764l-1.145,2.951a5.271,5.271,0,0,0-.272.59,1.474,1.474,0,0,0-.1.471c0,.218.066.354.2.412a3.625,3.625,0,0,0,1.185.075v.5h-6Zm13.592-6.25-3.325-6.868-2.906,6.868Z" transform="translate(-39.631)" style="fill:#231815"/><path d="M203.972,422.632a1.045,1.045,0,0,0,.559-.133,3.844,3.844,0,0,0,.441-.48V408.133H199.4a1.692,1.692,0,0,1-.606.439.572.572,0,0,0-.285.561h-.542v-5h.747a.918.918,0,0,0,.288.787,1.037,1.037,0,0,0,.611.213h14.719a1.018,1.018,0,0,0,.612-.213.928.928,0,0,0,.3-.787h.738v5h-1.093a.58.58,0,0,0-.293-.561c-.186-.119-.606-.439-.606-.439h-5.012v13.886c-.311.412-.066.613,1,.613v.5h-6Z" transform="translate(-39.631)" style="fill:#231815"/><path d="M241,409.133c0-.476-.423-.738-1.264-1h-9.747v4h6.06a1.051,1.051,0,0,0,1.025.252c.219-.058.321-.246.321.748h.6v3h-.685c.085-.256-.017-.434-.321-.509a2.968,2.968,0,0,1-1.271-.491h-5.729v5h10.237a.712.712,0,0,0,.824,0c.208-.167.32,0,.32,0H242v4h-.627s-.112-.7-.32-.727a1.342,1.342,0,0,1-.824-.273h-15.24v-.5a1.147,1.147,0,0,0,.628-.133,4.537,4.537,0,0,0,.373-.48v-15.3a4.442,4.442,0,0,0-.373-.477,2.532,2.532,0,0,0-.628-.137v-1.973h14.75c.841,1.25,1.264.988,1.264,1h1v4Z" transform="translate(-39.631)" style="fill:#231815"/><path d="M255,405.859c-.357,0-.531.2-.531.581a2.258,2.258,0,0,0,.167.643c.107.281.232.64.4,1.081l3.55,9.969h.081l3.426-9.767c.141-.39.257-.742.381-1.1a2.4,2.4,0,0,0,.183-.828c0-.38-.225-.581-.648-.581v-.726h6v.723c-.472,0-.722.171-.722.488a2.382,2.382,0,0,0,.206.842c.135.372.266.723.4,1.044l3.546,9.862,3.742-9.937c.135-.389.249-.716.349-1.01a2.786,2.786,0,0,0,.139-.709c0-.378-.223-.58-.654-.58v-.723h5v.723c-.464,0-.862.5-1.21,1.515l-4.644,12.471a12.936,12.936,0,0,1-.472,1.255,2.115,2.115,0,0,0-.249.764c0,.355.19.522.571.522v.75h-6v-.756a.612.612,0,0,0,.4-.134.83.83,0,0,0,.08-.433,8.566,8.566,0,0,0-.35-1.247q-.358-1.058-.909-2.7c-.383-1.076-.781-2.289-1.228-3.647-.429-1.347-.869-2.687-1.276-4.079h-.077a8.877,8.877,0,0,1-.433,1.33c-.223.664-.494,1.4-.811,2.241s-.63,1.715-.99,2.636-.669,1.773-.966,2.553-.541,1.45-.74,1.976a5.558,5.558,0,0,0-.287.941.775.775,0,0,0,.113.457.745.745,0,0,0,.47.11v.756h-6v-.75a.579.579,0,0,0,.277-.041c.081-.027.122-.109.122-.293a1.885,1.885,0,0,0-.147-.624c-.08-.253-.161-.464-.21-.59l-5.216-14.211a1.1,1.1,0,0,0-.829-.768v-.723h6Z" transform="translate(-39.631)" style="fill:#231815"/><path d="M283.022,422.383a1.361,1.361,0,0,0,.838-.464,4.1,4.1,0,0,0,.5-.723l6.453-13.287c.179-.385.32-.689.41-.924a1.754,1.754,0,0,0,.161-.675c0-.167-.045-.276-.119-.317a1.568,1.568,0,0,1-.239-.137v-.723h6v.723a1.316,1.316,0,0,1-.286.127c-.09.023-.141.126-.141.327a1.492,1.492,0,0,0,.185.6c.128.218.258.5.406.8l6.836,13.911a1.43,1.43,0,0,0,.46.522,2.084,2.084,0,0,0,.545.242v.75h-6v-.371a1.344,1.344,0,0,0,.728-.13.46.46,0,0,0,.229-.443,1.173,1.173,0,0,0-.084-.44c-.051-.15-.126-.327-.2-.556l-1.112-3.06h-8.756l-1.145,2.951a5.271,5.271,0,0,0-.272.59,1.48,1.48,0,0,0-.1.471.409.409,0,0,0,.2.412,1.421,1.421,0,0,0,.5.075v.5h-6Zm14.263-6.25-3.326-6.868-2.895,6.868Z" transform="translate(-39.631)" style="fill:#231815"/><path d="M311.614,406.555a1.7,1.7,0,0,0-.736-.528,2.214,2.214,0,0,0-.839-.171v-.723h7v.723a1.118,1.118,0,0,0-.471.137.478.478,0,0,0-.251.4.659.659,0,0,0,.171.437c.113.153.237.313.385.5l4.275,5.395,3.767-5.064c.26-.361.441-.631.565-.8a.844.844,0,0,0,.191-.522c0-.208-.06-.351-.191-.413a2.156,2.156,0,0,0-.436-.075v-.723h6v.723a1.6,1.6,0,0,0-1.046.546,13.268,13.268,0,0,0-1,1.136l-5.962,8.095v6.386s-.408.613,0,.613v.5h-5v-.5a5.6,5.6,0,0,0,1-.613v-6.542Z" transform="translate(-39.631)" style="fill:#231815"/><path d="M311.238,49.555c-14.88-2.162-30.2-1.439-45.334-1.926-4.606-.144-9.22-.017-13.9-.017v80.521h5.106c10.043,0,20.066.024,30.091-.016,4.451-.026,8.417,1.1,11.435,4.505,4.024,4.514,5.094,9.713,2.548,15.234-2.675,5.792-7.46,8.462-13.9,8.462q-57.437-.14-114.887-.185h-5.45v3.212q0,61.4.02,122.788c.006,15.935,11.65,27.8,27.626,27.941,17.518.159,35.038.075,52.556.075,1.508,0,2.984-.267,4.852-.433V237.29c14.02,0,27.646.067,41.268-.017a92.528,92.528,0,0,0,38.768-8.28c57.391-26.674,74.1-97.376,34.506-146.619C352.279,64.627,333.763,52.821,311.2,49.555m9.341,153.686a68.284,68.284,0,0,1-29.276,6.085c-21.3-.169-42.6-.152-63.922-.193h-4.356v74H194.393c0-9.588-.018-18.631,0-27.674.058-21.667.244-43.344.1-65.018-.034-4.169,1.255-5.109,5.256-5.094,29.274.152,58.54-.226,87.789.152,20.54.277,38.084-14.12,42.155-32.785,4.617-21.181-5.534-40.948-25.472-49.058-5.107-2.093-10.953-2.6-16.542-3.286-4.053-.505-8.216-.094-12.664-.094V77c30.6-3.007,54.873,2.354,72.938,28.744,23.839,34.846,9.473,80.725-27.417,97.5" transform="translate(-39.631)" style="fill:#e83418"/><path d="M275.017,77.133v23.143c4.448,0,8.611-.4,12.664.094,5.589.688,11.435,1.193,16.542,3.286,19.938,8.11,30.089,27.877,25.472,49.058-4.071,18.665-21.615,33.062-42.155,32.785-29.249-.378-58.515,0-87.789-.152-4-.015-5.29.925-5.256,5.094.142,21.674-.044,43.351-.1,65.018-.018,9.043,0,18.086,0,27.674h28.591v-74h4.356c21.319.041,42.623.024,63.922.193a68.284,68.284,0,0,0,29.276-6.085c36.89-16.777,51.256-62.665,27.417-97.5C329.89,79.349,305.613,73.988,275.017,77" transform="translate(-39.631)" style="fill:#fff"/><path d="M141.185,31.347a284.144,284.144,0,0,0,34.708,21.305A239.323,239.323,0,0,0,215.906,68.97c4.428,1.328,8.9,2.506,13.32,3.853,1.616.5,2.4.051,2.645-1.809.176-1.161.556-2.3.874-3.627Q179.954,44.842,140.487,0l-.6.3q-.795,10.767-1.565,21.516a17.287,17.287,0,0,1-.119,2.919c-.908,3.325.691,4.991,2.981,6.608" transform="translate(-39.631)" style="fill:#e83418"/><path d="M190.68,76.929c9.456,1.683,18.977,2.9,28.492,4.183,3.4.445,6.864.47,10.525.707.236-2.037.4-3.585.615-5.446a232.664,232.664,0,0,1-48.306-15.1,205.9,205.9,0,0,1-44.249-26.651c.539,5.269.978,9.879,1.492,14.483q.477,4.568,1.169,9.137a2.759,2.759,0,0,0,1.069,1.869c4.918,2.271,9.809,4.628,14.82,6.589A181.806,181.806,0,0,0,190.68,76.929" transform="translate(-39.631)" style="fill:#e83418"/><path d="M179.421,93.388c14.827,1.642,29.63.717,44.365-1.582,1-.158,2.021-.235,3.014-.394.927-.128,1.853-.312,2.983-.523-.086-1.709-.169-3.323-.236-5.167-30.633.783-59.651-6.216-87.839-19.934.537,2.061.96,3.761,1.423,5.461,1.288,4.654,2.717,9.24,3.83,13.926.606,2.576,1.946,3.669,4.143,4,9.439,1.423,18.852,3.18,28.317,4.215" transform="translate(-39.631)" style="fill:#e83418"/><path d="M187.193,112.213a194.884,194.884,0,0,0,40.872-11.6c1.245-.5,2.475-1.11,3.746-1.7-.194-.857-.344-1.572-.522-2.288-.16-.714-.329-1.43-.539-2.314-4.1.766-8.133,1.566-12.184,2.273A153.139,153.139,0,0,1,187,98.378c-5.937-.21-11.882-.6-17.809-.9l13.421,14.905a33.389,33.389,0,0,0,4.581-.169" transform="translate(-39.631)" style="fill:#e83418"/><path d="M233.132,101.837c-5.127,2.348-10.087,4.839-15.189,6.9a129.749,129.749,0,0,1-26.843,7.692,21.438,21.438,0,0,0-3.621,1.313q4.674,5.2,9.364,10.418c4.057-1.794,8.192-3.443,12.165-5.444a146.808,146.808,0,0,0,25.624-16.68c-.5-1.413-1.01-2.844-1.5-4.2" transform="translate(-39.631)" style="fill:#e83418"/><g style="clip-path:url(#a)"><rect x="337.451" y="15.133" width="64.041" height="62" style="fill:url(#b)"/></g></svg>